<?xml version="1.0" encoding="UTF-8"?>
<svg id="Layer_1_Rectangle_1_Image" data-name="Layer 1 + Rectangle 1 Image" xmlns="http://www.w3.org/2000/svg" viewBox="0 0 252.48 152.64">
  <defs>
    <style>
      .cls-1 {
        fill: none;
      }

      .cls-2 {
        fill: #dfdfdf;
      }

      .cls-3 {
        fill: #cecece;
      }

      .cls-4 {
        fill: #adadad;
      }

      .cls-5 {
        fill: #bdbdbd;
      }

      .cls-6 {
        fill: #ddd;
      }

      .cls-7 {
        fill: #eaeaea;
      }

      .cls-8 {
        fill: #d6d6d6;
      }

      .cls-9 {
        fill: #b6b6b6;
      }

      .cls-10 {
        fill: #d0d0d0;
      }

      .cls-11 {
        fill: none;
      }

      .cls-12 {
        fill: #d9d9d9;
      }

      .cls-13 {
        fill: #b5b5b5;
      }

      .cls-14 {
        fill: #ebebeb;
      }

      .cls-15 {
        fill: none;
      }

      .cls-16 {
        fill: #e6e6e6;
      }

      .cls-17 {
        fill: #bbb;
      }

      .cls-18 {
        fill: #c1c1c1;
      }

      .cls-19 {
        fill: #e5e5e5;
      }

      .cls-20 {
        fill: #d8d8d8;
      }

      .cls-21 {
        fill: #ccc;
      }

      .cls-22 {
        fill: #b4b4b4;
      }

      .cls-23 {
        fill: #c3c3c3;
      }

      .cls-24 {
        fill: #c4c4c4;
      }

      .cls-25 {
        fill: #b1b1b1;
      }

      .cls-26 {
        fill: #c9c9c9;
      }

      .cls-27 {
        fill: #bababa;
      }

      .cls-28 {
        fill: #bebebe;
      }

      .cls-29 {
        fill: #c7c7c7;
      }

      .cls-30 {
        fill: #d4d4d4;
      }

      .cls-31 {
        fill: #e7e7e7;
      }

      .cls-32 {
        fill: #dadada;
      }

      .cls-33 {
        fill: #b3b3b3;
      }

      .cls-34 {
        fill: #b0b0b0;
      }

      .cls-35 {
        fill: none;
      }

      .cls-36 {
        fill: #d7d7d7;
      }

      .cls-37 {
        fill: #bcbcbc;
      }

      .cls-38 {
        fill: silver;
      }

      .cls-39 {
        fill: #e1e1e1;
      }

      .cls-40 {
        fill: #c5c5c5;
      }

      .cls-41 {
        fill: none;
      }

      .cls-42 {
        fill: none;
      }

      .cls-43 {
        fill: #d5d5d5;
      }

      .cls-44 {
        fill: none;
      }

      .cls-45 {
        fill: none;
      }

      .cls-46 {
        fill: none;
      }

      .cls-47 {
        fill: #e2e2e2;
      }

      .cls-48 {
        fill: #dbdbdb;
      }

      .cls-49 {
        fill: #b9b9b9;
      }

      .cls-50 {
        fill: none;
      }

      .cls-51 {
        fill: #c2c2c2;
      }

      .cls-52 {
        fill: none;
      }

      .cls-53 {
        fill: none;
      }

      .cls-54 {
        fill: #dcdcdc;
      }

      .cls-55 {
        fill: #d1d1d1;
      }

      .cls-56 {
        fill: #aeaeae;
      }

      .cls-57 {
        fill: #d3d3d3;
      }

      .cls-58 {
        fill: none;
      }

      .cls-59 {
        fill: #e0e0e0;
      }

      .cls-60 {
        fill: none;
      }

      .cls-61 {
        fill: none;
      }

      .cls-62 {
        fill: #bfbfbf;
      }

      .cls-63 {
        fill: none;
      }

      .cls-64 {
        fill: #cfcfcf;
      }

      .cls-65 {
        fill: #e8e8e8;
      }
    </style>
  </defs>
  <path class="cls-41" d="M161.85,0c.21.05.21.12,0,.22-.22.28-.5.38-.83.4-23.01,1.29-47.69,9.13-65.6,24.5-9.52,8.17-17.45,18.39-20.92,30.48l-.56.43c-.99,4.3-1.73,8.64-2.22,13.03-.24.3-.25.58-.01.82.26,1.27-.76,1.73-3.07,1.38-8.53-1.06-17.32-1.79-25.87-1.67-6.17-.6-12.82-.2-19.12.24s-12.85,1.25-18.64,3.77l-.69-.16c-.02.66-.12.81-.31.45h-.68c.04.51-.75,1.07-1.15.71-1.44,1.03-2.17,3.4-.42,4.52,5.2,3.32,11.6,4.28,17.56,5.08.91.12,2.12.25,2.97,0-.05-.62.33-.65.88-.57.44.86,1.65.97,2.44.49-.16-.3.08-.38.71-.24l.56-.23c2.35,1.12,4.94,1.46,7.78,1.02l.35.47c.31-.34.88-.32,1.71.07.15-.51.6-.66,1.36-.45l1.09.25c-.05-1.49,1.96-1.14,2.27,0,.29-.3.54-.23.77.23.76-.55,1.22-.5,1.98,0l3.14-.49.4.43c.75.13-.27.95-.79.93.08.16.2.25.37.2,1.37-.43,2.87-.9,4.13-1.41,3.76-.4,7.53-.75,11.32-1.06.9.15,1.83.03,2.8-.34,2.29.45,4.42.23,6.74-.2,1.66-.34,3.28,3.29,1.88,4.29-5.44,1.72-10.63,4.2-15.6,6.72l-.52-.28c.32.28.29.41-.15.32-5.44,2.47-10.98,6.32-15.49,10.34-2.5,2.23-6.69,7.34-7.19,10.63-1.18,7.72,5.43,11.08,11.81,12.93l.18.24c.83-.04,1.68.04,2.54.26l-.17-.3-.62-.08c-.16.4-1.31.16-1.5-.19-3.11-.42-6.73-2.09-9.14-4.2-.22-.19-.23-.54-.25-.84l-.93-1.44c.72-.27,1.37-.65,1.92-1.16l.99.6.38-.08c5.58,4.08,12.91,4.03,19.63,3.81l1.3.18.08-.26c5.8-.44,11.71-2.04,17.06-4.51,1.13-.52,1.82-1.25.48-1.83-2.83.89-5.8,1.35-8.75,1.6.03.33-.83.24-.78.24,1.4.06,2.79,0,4.18-.17,0-.12,0-.23.04-.34.1-.26,5.17-1.41,5.42-1.3,1.34.55.38,1.18-.51,1.75-2.68,1.73-9.32,3.41-12.47,3.98-2.02.48-4.01.61-5.97.37-.03.16-.06.29-.12.3-3.91.53-10.79-.08-14.5-1.27-4.35-1.39-8.82-4.77-8.13-9.9.14-1.02.23-1.29,1.06-1.85-.09-.28-.18-.6-.08-.9.88-2.67,4.16-6.28,6.24-8.19.41-.38,5.06-3.94,5.39-3.88.11.02.21.09.31.17.54-.24.73-.23.49.35.18.63-.06.93-.71.69-1.44,1.07-2.77,2.44-3.88,3.86l.34.44c-2.54,2.75-3.41,6.81-1.44,10.18l-.15.68c.92,1.03,1.36,1.16,1.31.36-1.2-.13-.79-1.84.41-1.38l1.86,1.47c3.17,1.48,6.55,2.33,10.13,2.55l.26.53.57-.4c.49.23.94.22,1.33-.03,9.72-.28,19.03-2.53,27.61-6.27.47.06.91.2,1.29.43,1.07.95,2.05,1.96,2.96,3.04.12-.06.23-.09.31-.06,1.3.6,2.96,2.1,3.86,3.26l.91.52c.26-.01.55-.02.78.13.67.42,2.91,2.22,3.48,2.79l.23.77,1.07.19,2.81,1.94c1.16.53,2.07,1.24,2.71,2.13.45-.49.85-.14.64.45.98.08,1.93.47,2.84,1.19,1.25.45,2.22,1.11,2.91,1.98.48-.57,1.57.05,1.47.76l.45-.31c1.38.48,2.5,1.2,3.35,2.17l.82-.14c7.4,3.21,15.32,5.34,23.28,6.57l.62.56.27-.45c-.08.58.29.63,1.12.13,5.4,1.25,11.17.97,16.65.19,2.7-.4,5.31-1.21,7.83-2.44l1.38-.3c.86-.66,1.78-1.16,2.75-1.5l2.47-2.22c.44-.69,1.11-1.31,1.61-.44.09-.16.26-.13.5.08,1.41-.25.92.29.31.21-1.69-.22.1-2.2.88-2.45.48-.66.48-.89-.02-.69h-.4c.45-1.34.67-2.77.64-4.29.04-.75.27-1.02.69-.81l.49-.35c.76.43,1.16.49,1.18.16-.39-.63-.6-1.08.29-1.14.16-.33.42-.44.71-.23l9.02,7.12c11.53,8.59,24.62,15.25,38.29,19.46l.36.41c2.36.46,4.73.87,7.1,1.22l.11.28c.5-.19,1.4-.36,1.45.23H0S0,0,0,0h161.85Z"/>
  <path class="cls-41" d="M166.88,0h85.6v148.55l-.37-.21c-1.25-4.73-5.73-7.7-9.64-10.08v-.31s-.31.05-.31.05l-5.57-3.12c-.29-.02-.61-.2-.97-.56-1.02-.58-2.08-1.13-3.17-1.67-.8-.25-1.59-.68-2.37-1.29-.39.07-.5-.04-.34-.34l-.15.16c-1.4-.68-2.82-1.2-4.25-1.57l-.13-.56c-1.57-.45-3.26-.94-4.61-1.88-1.1-.11-2.76-.71-3.87-1.24-.05-.03-.07-.13-.07-.26l-.86.25c-1.65-.89-3.32-1.74-5.02-2.56-1.13-.71-1.8-.61-2,.32-1.07-.14-3-.74-2.34-2.04-.55.41-2.03-.15-2.69-.43-.76-.32-1.53-.64-2.29-.97-.25-.11-.42-.24-.44-.56-.76.03-1.46-.13-2.1-.49l-1.81-.42c-.12.2-.24.25-.4.17-4.46-2.34-10.45-4.48-15.27-6.18-.2-.07-.32-.22-.37-.44-1.39-.11-3.56-.73-4.71-1.58-.09-.07-.11-.24-.1-.44-.83-.02-1.63-.35-2.41-1.01-2.61-.97-4.07-1.65-5.33-4.03s-1.45-5.18-1.56-7.89l-1.68-13.81c.1-1.89,3.05-5.31,4.2-6.65,4.88-5.65,10.57-10.75,16.51-15.17,11.99-8.57,26.64-23.78,22.06-39.88-4-14.07-22.14-19.73-35.14-20.85-.24-.28-.65-.45-1.23-.5-.03.12-.07.23-.14.31-.15.17-4.36-.06-4.5-.24-.07-.09-.11-.2-.15-.32-.21-.07-.21-.15,0-.25Z"/>
  <path class="cls-22" d="M252.48,148.55v.72l-.36,1.9c-1.4,1.06-3.12,1.54-5.16,1.46h-5.99c-.4-.33-.95-.29-1.45-.24-.04-.36.28-.46.97-.3.62-.32,2.1-.28,2.96-.2.06,0,.1.11.15.25.32-.53.83-.59,1.53-.19l1.15.03c-.02-.42.33-.63,1.05-.62l2.5-.71c1.18-.55,1.81-1.92,1.22-3.12l.29-.45c-.52,0-.9-.4-1.17-1.17l-.59,1.06c.81-.49,1.38-.12.73.65.2.6-.12,1.08-.97,1.43-.27,3.28-5.88,3.14-2.02.3.3-1.66.86-3.3,1.79-4.72l-.9-1.27.22-.51c-.39,0-.7-.04-.94-.14l-.07-.62c-.13.13-.31.3-.46.25-.3-.1-2.73-2.14-2.74-2.34,0-.11.03-.23.07-.35-.57-.15-1.15-.27-1.74-.35-.46-.37-.6-.71-.42-1.01-.45-.46-.27-.59.31-.34l1.99,1.11,3.93,3.07c2.25,1.76,3.55,3.73,4.1,6.42Z"/>
  <path class="cls-63" d="M252.48,149.27v3.36h-5.51c0-.11.06-.22.28-.22,1.73,0,3.65-.53,4.82-1.87.26-.3.09-1.12.42-1.27Z"/>
  <path class="cls-7" d="M166.88,0v.25c-.02.12-.05.23-.11.32-.13.2-4.62.16-4.77-.02-.07-.09-.12-.2-.15-.32v-.22s5.03,0,5.03,0Z"/>
  <path class="cls-4" d="M176.25,110.3c.39.54.13.72-.79.53-.43.63-1.33-.01-.9-.63-.64-.4-1.07-.04-.78.68l.54-.1c5.16,7.28,11.24,13.29,18.6,18.37,3.79,3.16,8.36,5.83,12.73,8.22,1.44.79,2.9,1.58,4.38,2.32,5.15,2.55,10.63,4.97,16.31,6.26,2.7.61,13.43,2.83,12.67-2.39-1.42-1.79-3-3.48-4.75-5.06l-.08-.66c-.74-.7-.6-1.07.34-.58.09-.18.29-.38.4-.31,3.22,2.09,8.92,6.04,5.48,10.12l3.71-2.26c1.93-.32,2.89,1.46,2.89,3.19,0,.64-.12,1.77-.91,1.56l-1.58,1.5c.14.6-.42.76-1.7.48l-.42.13c0,.34-.38.33-.48,0-1.28-.09-2.55-.17-3.84-.24-.26.27-.74.26-1.44-.03l-.11.22-4.23-.73c-.65.26-1.35-.27-2.07-.49-7.29-2.28-14.14-5.19-20.87-8.85-5.85-3.18-11.45-6.55-16.62-10.71l-6.13-4.92c-.38-.31-.81-.37-1.16-.8-.38-.47-1.04-.84-1.55-.99l-.24.25c-.79-.23-1.48-.75-2.07-1.58l.09,1.84-1.05,6.16-.35-.06c.1.5.01.96-.25,1.39-.42.31-.65.73-.69,1.27-1.36-.17-2.13,2.01-4.08,2.66.2-.95.05-1.29-.94-.88.42.48-.25,1-.75.87-.46.39-1.66,1.08-2.1.49.11.33-.15.54-.77.63-.19-.27-.52-.33-.98-.18.22.74-1.61,1.6-2.13,1.08.08.18.09.43-.05.47-3.26.93-6.46,1.3-9.84,1.42-.24.78-1.49.82-1.61-.07l-1.25.36c-2.55-.23-5.12-.52-7.69-.88.21.22.35.48.24.78l4.37.22.18-.27s1.51.05,4.52.16c.29.32.64.29,1.05-.1,1.47-.03,2.92-.21,4.35-.54.18-.02.33.29.42.51.35-.17.83-.22,1,.16-.36.32-.9.47-1.46.53l-2.18.22-6.12.13-2.99-.12-5.29-.62c.44-.45.82-.94,1.12-1.49-5.16-.85-10.43-1.91-15.81-3.18-2.13-1.02-4.36-1.74-6.67-2.16-1.01-.69-2.1-1.17-3.27-1.43.48.64.45,1.06-.08,1.25l-3.81-1.86c-.17-.79-.74-1.29-1.47-.76-1.98-.92-3.96-1.91-5.76-3.17-.12-.68-.33-.83-.64-.45-2.33-1.19-4.49-2.72-6.59-4.27v-.79s-3.79-3.24-3.79-3.24c-.27-.37-.5-.25-.7.35l-1.29-.06c-.19-.97-2.22-2.14-3.8-3.66-.34-.35-.46-.63-.35-.86.34-.61,1.26.35,1.2.3-.45-.43-2.88-2.78-2.87-3.01,0-.19.22-.33.41-.42.08-.29.28-.38.57-.33.42.08,5.7,5.02,6.4,5.72l-.06.59c.88-.04,1.21.21.99.75.07-.19.2-.3.39-.32,19.41,14.6,46.1,24.25,69.72,18.21l.37.41c.94-.33,1.89-.68,2.64-1.36l-.05-.52c1.98-1.01,4.3-2.59,5.61-4.42,1.37-1.94,1.5-5.52,1.16-7.83-.25-.25-.32-.52-.21-.81-.66.46-1.02.13-1.06-1.01-.68.29-1.46-1.15-.93-1.63-.31-.67-.19-.84.37-.51l.4-.02-1.3-2.01.15-.28c-.22-.11-.48-.09-.8.06l-.9-1.14c-.63-.37-.82-.78-.56-1.21-.13.07-.25.12-.34.09-.08-.03-.62-1.35-.52-1.48l-.72-.8c-.83-.15-1.33-.52-1.51-1.12l-.87.25c.33.41.18.56-.26.29-.64-.87-.88-1.94-.71-3.22l-.52.13c-3.76-3.32-7.83-6.24-12.21-8.77l-.04-.58c-.8-.67-.72-1.26.35-.9l.74-.1,2.56,1.43c-.43-.71-.62-1.36-.56-1.93-.48-.54-.32-1.15.34-.68.42-.15.39-.49-.08-1.04l-.27.12-5.22-5.99c-.68-.35-1-.77-.97-1.25-1.01-.63-.67-1.45.28-.64.21-.24.33-.51.3-.84l-.8-.06c-.3.99-2.21.04-2.41-.73-.53.45-1.69.15-2.13-.38-.58-.78-.25-1,.63-1-.13-1,.71-.23,1.22.25l.25-.46,2.38.25c-1.69-2.86-3.9-5.23-6.62-7.09l-.23-.63c-2.11-1.53-4.21-2-6.29-1.41-.83-.68-3.49-1.5-1.88.3.31,2.57-2.57,1.17-3.83.53-.94.65-2.41-.96-1-1.38-.64.14-1.03-.02-1.16-.46-.45.2-3.86.17-4.01.04-.13-.12-.18-.27-.14-.29l1.25-.26c.16-.59.33-.6.51-.01l.14-.45c.84.24,2.06.38,2.59-.37l1.18.24c4.66-.1,9.26-.55,13.8-1.35l.22-.51c5.12-.57,10.26-1.26,15.43-2.08,9.51-1.01,17.73-5.24,25.48-10.28-.07-.89,1.24-1.3,2.02-1.41-.43-.47-.27-.62.31-.36.29-.83.88-1.25,1.67-1.56.65-1.15,1.63-1.94,2.87-2.45.83-1.09,1.77-2.05,2.82-2.89.01-.38.19-.68.42-.97,5.25-6.56,10.68-15.14,9.46-23.89-.79-5.69-3.42-10.33-7.74-14.09-3.51-3.06-10.49-6.22-15.03-7.71-2.44-.48-4.84-1.12-7.2-1.93-.56.3-1.16.23-1.79-.19-.71.28-1.4.18-2.07-.29-.87.28-1.36.19-1.48-.26-.6-.24-.91-.52-.93-.81l4.33.55,7.55,1.29c5.01,1.18,9.69,3.33,14.08,5.98,2.54,1.53,4.67,3.27,6.55,5.48,4.13,4.84,5.47,9.94,4.79,16.31-.34,3.15-.81,6.22-2.2,9.1-1.58,3.28-3.51,6.27-5.87,8.98l-3.47,3.99c-5.12,5.88-11.17,9.2-16.14,13.81l-2.38,2.21c-4.31,3.61-8.17,7.46-11.4,12.1-.66.95-1.91,2.02-1.77,3.23l.8,6.57.84,6.85c.18,1.49.21,2.83.26,4.34l.96,3.02c.22.7.53,1,.94,1.52.35.46.5,1.21,1.15,1.49,1.99.85,3.83,1.87,5.57,2.98Z"/>
  <path class="cls-4" d="M161.85.22l5.04.02,2.61.04,2.18.21c.24.18.51.27,1.13.25-.02.18-.13.35-.2.56.03.36-.32.37-1.03.04-1.03.47-1.71.39-2.05-.24-.03.65-.51.68-.61,0-2.21.35-4.45.48-6.73.38-1.26-.48-2.73-.66-3.93.07-1.27-.37-2.31-.32-3.13.15-1.26-.38-2.22-.07-3.35.56-8.92.84-17.33,3.36-25.7,6.41-8.86,3.23-16.95,7.81-24.47,13.6s-12.74,11.6-18.22,18.56c-2.07,3.77-3.99,7.6-5.77,11.51l-.69.38-.85,2.37c.34.44.23.76-.32.86l-.99,3.34.44.28c-.7,3.56-1.03,7.12-1,10.67,1.38.78,2.92,1.28,4.61,1.5,5.94.97,11.87,2.08,17.77,3.33l-1.76-1.23c-.49-.78-.39-4.72,1.04-4.23.34.12.37.23.31.63l.58.16c.42-.13,3.12-.49,3.36-.26.28.27.19.35-.14.49l-2.5.43c-1.19.48-1.7.85-1.04,2.13.73,0,1.44.35,2.13,1.07,2.64,1.66,6.02,3.64,9.15,2.52l.38.42c2.92-.35,5.84-.73,8.76-1.15.34.57.08.77-.43,1.06l-7.25,1.45,3.59.55c.36.48.39.83-.16,1.17l-2.77-.27c-.79.76-2.75-.16-3.53-.81-10.21,1.77-20.21,4.89-29.92,8.17,1.3,3.55,2.75,6.77,4.48,10.14.89,1.74,3.32,4.96,4.6,6.61.57.73,4.66,5.81,5.05,5.8l6.69-4.04.55.23c.99-.5,1.74-.47.61.48-.48.73-1.13,1.35-1.95,1.88-1.68,1.22-3.44,2.25-5.29,3.08,0,.17.07.54.32.64.74.29.92,1.07,1.38,1.49.72.64,1.48,1.12,1.87,2.13-1,.3-1.49-.73-2.31-1.13l-.3.02c-.92-.99-1.91-1.82-2.97-2.48-.87.42-.91-.57-.83-1.18l-1.05-1.41c-.18.07-.45.18-.55.07-5.17-5.69-9.42-14.04-12.43-21.11-5.43,1.71-10.68,4.16-15.44,6.99l-.53-.24c-.56.24-.73.15-.52-.27,0-.27.1-.62.28-1.06l5.09-2.53c3.3-1.64,6.6-2.95,10.13-4,.41-.12.81-.41.94-.66.18-.33.07-.82-.12-1.2l-.86-1.78c-1.67-.43-3.98.74-6.02.28-1.13-.25-1.99-.32-3.1.26-.31.16-1.07-.17-1.47-.09-4.17.82-7.87.23-10.95,1l-4.48,1.12c-.19.05-.35-.16-.28-.34,1.33-.85,2.71-1.26,4.42-1.33l-3.43.65-.21-.26-3.62.52-1.1-.49c-.23.42-.76.6-1.09.46-.21-.09-.28-.55-.48-.66-.93-.65-.74-1.01.56-1.08l1.07-.48c6.15-.1,12.31-.22,18.46-.37,1.17-.51,2.47-.71,3.9-.59,1.36-.74,2.14-.59,2.33.47.56-.34.97-.33,1.24.04.58-.02,1.13-.15,1.65-.39.58.12,1.1.18,1.57.16-.11-.33-.13-.57.17-.64-.72-3.17-1.3-6.39-1.49-9.64-14.49-1.92-29.55-2.9-44.6-1.19-4.42.5-12.27,1.57-15.73,4.34-.3.24-.96.93-.92,1.3.24,2.36,8.67,4.3,10.81,4.74l.18.55c1.34.85-.1.86-1.05.67-1.03.54-3.07,0-4.29-.34s-6.67-2.86-7.46-3.66-1.17-1.72-.56-2.77c-.71.94-3.1,1.85-2.49.19-.26-.34-.27-.82-.03-1.45-.69.02-.66-.23-.48-.76-.57-.16-.57-.38.02-.66,1.51-.94,3.31-1.34,5.07-1.9,2.33-.74,4.55-1.04,6.97-1.44,5.06-.84,10.08-.84,15.2-1.09,3.1-.15,6.09-.42,9.19-.14.97.09,1.88.32,2.89.26,2.15-.13,4.21.06,6.35.11,4.72.13,9.28.44,14.02,1.07,2.42.33,4.77.6,7.15.44.2-.01.17-.82-.03-.93-.17-.1-.39-.15-.69-.45.46-.06.82-.19.81-.39l-.04-.84,1.64-9.58c.15-.88,1.01-1.79.27-2.81.25-.06.69-.11.97-.38,1.24-4.93,3.63-9.32,6.08-13.75.42-.75.71-1.05,1.2-1.67,1.97-2.51,3.61-5.09,5.77-7.47,10.77-11.87,23.38-19.55,38.37-25,9.15-3.33,18.36-5.62,28.06-6.63l4.44-.46c1.32-.14,2.57-.19,3.83-.18Z"/>
  <path class="cls-4" d="M145.27,140.46c-6.89-.81-18.54-3.98-24.72-6.99.09-.52-.41-1.09-.7-1.47.16-.86,1.08-.06,1.46-.07,1.02,0,2.07.99,2.77,1.26,1.29.47,2.75.24,4.09,1.11l1.59.71c1.05.47,2.37.54,3.52.86,1.91.53,3.69,1.05,5.64,1.34l7.07,1.06c.34.05.78.04.93.43.08.2-.64,2.05-1.66,1.75Z"/>
  <path class="cls-56" d="M57.9,94.36c.06.11.1.2.07.26-.1.18-3.17,1.88-3.61,1.83.05.11.08.21.07.31-.03.21-3.23,2.12-3.63,2.34l-.44-.05-4.22,3.05c-3.36,2.43-5.87,6.15-7.65,9.74-.39.77-.76.98-1.13.64-.19.44-.43.65-.74.62-.98,1.16-1.18,2.68-.58,4.54.35.31.48.82.39,1.52.29.7.27,1.22-.05,1.57.28.45.6.71.94.76.06.57.31,1.13.76,1.66,2.58,2.51,5.94,4.01,9.39,5.04.4.17.31.27-.26.31-4-.78-9.95-3.48-11.77-7.23-1.28-2.65-.87-5.8.31-8.41,1.85-4.06,4.59-7.21,8.07-9.96,4.02-3.17,8.26-5.84,12.73-8.34.47-.26.92-.33,1.34-.18Z"/>
  <path class="cls-34" d="M54.46,98.01l.14.51c-2.02,1.58-3.94,3.17-5.71,5.1s-4.18,5.75-2.88,8.47c1.62,3.39,8.78,5.14,12.21,5.14l.74.53c1.3.26,1.43,1.11.01,1.05l-6.74-1.15-1.83-.59c-1.56-.5-2.86-1.27-4.1-2.64-.46.6-.1.92.02,1.21.31.54.27.8-.1.79l-1.2-1.16c-1.22-1.92-1.71-4.02-1.23-6.39.71-3.53,2.26-4.02,2.48-4.92,1.12-1.42,2.44-2.76,3.88-3.86.25-.26.38-.52.71-.69-.01-.17,0-.31.06-.36.46-.36,2.85-1.98,3.19-2.05.1-.02.22.06.35.17,1.17-.61.73.27,0,.86Z"/>
  <path class="cls-27" d="M92.37,114.7l.35.86-3.36-3.23c-.6-.03-1.09.54-1.61.71l-8.9,2.99c-5.92,1.65-11.83,2.41-17.89,2.79-.16.01-.55.48-.68.39-.38-.32-.96-.36-1.33-.42.09-.05.52-.23.54-.39.03-.24-.38-.54-.55-.66l1.17-.43c9.47-.1,19.18-1.54,27.17-6.3-.39-.55-.41-1-.06-1.37.48.62,1.94,1.6,1.46,2.47,1.51-.24,2.27,1.88,3.68,2.58Z"/>
  <path class="cls-9" d="M38.49,111.84c-1.41,2.84-.31,5.69,1.67,8.29s7.86,3.95,11.46,4.32l8.55.11c.66,0,1.07.17,1.21.47-3.19.33-6.46.4-9.77.12-3.72-.32-9.1-1.64-11.55-4.02-1-.21-1.39-.61-1.16-1.2-1.28-.15-1.9-2.29-2.21-3.49-.44-2.68-.47-2.39-.11.89l-.54.31c-.29-1.51-.95-2.43-.21-3.63l1.58-2.55c.09.38.24.87.52.78.19-.06.38-.28.56-.4Z"/>
  <path class="cls-22" d="M42,83.93c-.2.14-.35.27-.86.35.06.28.2.48.3.73-.28-.15-.66-.4-.97-.67s-.8,0-.87.22c-.05.17.43.52.39.7-.18.89-1.15-.29-3.26-.06l-.31.05c-.41-.35-.87-.39-1.39-.12l-4.5.11c-1.48.04-2.97-.65-4.18-1.38-.51,0-1.01-.01-1.51-.03-.05,0,.85-.1.81.27-.45.66-1.66.57-2.31.09-.42-.31-.71,0-1.02,0-.04.13-.08.24-.12.24-.44,0-3.38-.21-3.45-.45-.02-.08.09-.2.23-.33l.21-.31c.6,0,.74-.14.42-.45l1.13-.09c.1-.23,0-.44-.08-.58l.92-.16c6.65.82,13.57,1.41,20.11,1.39l.31.48Z"/>
  <path class="cls-34" d="M2.19,74.59l.2.29c-1.19,1.55-1.25,3.23.53,4.31.23-.53.69-.4,1.38.38,1.07.41,2.04,1.01,2.9,1.79.11-.5.67-.63,1.68-.39,3.01,1,6.15,1.71,9.41,2.13l.68.53c-.02.33.32.39.68.41l2.66.14c.07.12,0,.45-.11.5.3-.13-2.11-.24-3.98-.41-5.82-.51-12.4-1.63-16.93-5.15-.84-.65-1.28-1.79-.94-2.78.27-.78,1.05-1.47,1.84-1.77Z"/>
  <path class="cls-17" d="M61.38,125.04l-1.21-.47c3.49.05,8.32-1.05,11.91-2.24,2.59-.86,5.31-1.33,7.48-3.46l-5.9,1.24c-1.1.14-2.19.2-3.28.19l-.12-.26c2.49-.83,5.11-.92,8.06-1.81.33-.1.5-.46.76-.7.1.74.91,1,1.19,1.37.14.87-1,1.56-1.82,1.89-4.56,1.85-9.24,3.44-14.17,3.95l-2.89.3Z"/>
  <path class="cls-49" d="M175.27,136.08c-.56,1.17-9.41,4.75-11.96,4.25-.3-.06-.62-.29-1-.16-.18-.51.31-.73,1.45-.64l3.44-.84.46.34c.36-.84,2.27-1.84,3.02-1.25.14-.89.49-1.08.98-.29.46-.52,1.28-1.09,1.93-1.41.87-.27,1.12-.56.75-.87l2.86-2.24c.11-.08.45-.14.55-.11.16.03.11.3.05.4l-.19.37c-1.05.67-1.83,1.4-2.34,2.46Z"/>
  <path class="cls-3" d="M62.17,129.75l-4.38.04v-.38s5.21-.14,5.21-.14l8.36-1.01,10.96-2.72c-5.07,2.01-10.44,3.09-15.87,3.81l-4.29.39Z"/>
  <path class="cls-38" d="M4.81,76.31c-.37.56-.65.21-.99-.27-1.42.64-1.05,1.52,1.13,2.64,1.29.37,2.21,1.35,2.27,2.68l-3.04-1.32c-.43-.19-.85-.88-1.25-.85-2.45-1.67-1.48-4.26,1.12-5.04.05-.01-.94.41-.7-.27.27,0,.74-.3.98-.45-.11.55.27.9.67,1.36.05.37-.39,1.08-.19,1.52Z"/>
  <path class="cls-4" d="M102.3,122.96c-1.53-1.13-3.2-2.25-4.49-3.68-.12-.29-.27-.78-.72-1.06-.08-.22.47-.61.61-.48l.47.44c.67.27,1,.74,1.49,1.15,1.12.95,2.32,1.67,3.32,2.89-.14.27-.42.47-.68.74Z"/>
  <path class="cls-37" d="M70.26,120.04c1.66.36,2.13-.1,3.4.07-1.17.25-2.3.36-3.65.44-2.2.13-4.4.78-6.54.26-.32.31-.69.48-1.11.37l.43-1.04h4.32c1.08.02,2.17-.31,3.14-.1Z"/>
  <path class="cls-38" d="M61.4,121.05c-1.2-.02-2.26-.04-3.33-.23l-3.78-.68c-.36-.07-.64-.51-.53-.78,2.25.38,4.39.83,6.66.87.38,0,.64-.13.86-.05.37.12.46.88.13.87Z"/>
  <path class="cls-61" d="M183.92,124.14c-.13.35-.23.72-.29,1.14-.3.13-.67.07-1.11-.18l-.56.37c-1.25.88-.24,3-1.04,4.76-.1.15-.09.29.1.33.24,0,.39.09.31.22-.67.99-1.53,1.56-1.03-.03.83-1.04.66-2.26.78-3.58.17-1.89.33-3.58-.33-5.61,1.28.56,2.06,2.26,3.18,2.58Z"/>
  <path class="cls-49" d="M61.88,65.1c-.66.58-3.75-2.1-4.07-2.92l-.85-2.16c.66-1.42,2.19-2.6,3.69-2.89-.49.43-1.19.68-1.59,1.26-1.31.65-1.64,2.01-.96,3.21.87,1.52,2,2.51,3.77,3.51Z"/>
  <path class="cls-64" d="M179.35,133.42c-.12-.85.4-1.98.95-2.66-.04.12-.13.43.14.54.14.05.42-.13.45-.24l.13-.48,2.49-2.8c.1.92-.59,1.57-1.13,2.24l-1.91,2.34c-.2.14-.99.14-.89.65s.91.38,1.36.16c0,.63-.59.65-.8.95-.21-.33-.54-.55-.79-.69Z"/>
  <path class="cls-62" d="M46.31,115.62c1.08,1.35,2.94,2.34,4.79,2.21.01.61-.36.71-.73.84-.71.24-4.06-1.36-5.36-3.42.45.17.73.44,1.15.91l.15-.55Z"/>
  <path class="cls-51" d="M48.96,128.37c.2-.69.41-.67.62.08,1.95.76,4.28.82,6.47.76.15.16.03.51-.11.59s-.58.18-.77.08c-.82-.41-1.62-.15-2.41-.31l-5.55-1.08.26-.31c.46.14,1.03.26,1.5.19Z"/>
  <path class="cls-39" d="M3.34,73.89c.23.25.62-.21.94.4-1.4.5-2.75,1.56-2.49,3.11l1.13,1.8c-.88.06-1.15-.52-1.46-1.12-.51-.97.03-2.3.73-3.48.33-.13.64-.71,1.15-.7Z"/>
  <path class="cls-23" d="M236.65,151.4c1.22.3,2.46.46,3.73.47l.12.22c-.35,0-.71.05-.97.3l-6.92-1.22c-.14-.03-.25-.18-.3-.28.37-.15.55-.16,1.1-.06l3.24.57Z"/>
  <path class="cls-32" d="M49.59,128.44c-.14-.06-.47-.1-.62-.08.36-.39-.16-.63-.31-.85-.81-1.13-1.58-1.33-3.04-1.7.92-.45,1.63-.21,2.47-.22.06,1,.63,1.4,1.52,1.54-.23.53-.22.95-.01,1.3Z"/>
  <path class="cls-61" d="M54.36,96.45c.63-.24.81-.16.55.27.3.53.07.52-.46.44-1.3.58-2.36,1.59-3.61,2.24-.11-.17-.27-.28-.49-.35l4-2.59Z"/>
  <path class="cls-57" d="M89.28,121.06c.33,1.13-1.83-.27-2.91,1.4-.19.29-.46.43-.78.3-.19-.08-.48-.42-.31-.54,1.27-.91,2.55-1.45,3.99-1.16Z"/>
  <path class="cls-6" d="M40.07,121.14c-.88-.57-1.33.32-2.56.69l.58,1.31c-.72-.7-1.31-1.47-1.7-2.41.19-.3.55-.31,1.08-.03.46-.32.94-.57,1.45-.76.31.4.8.85,1.16,1.2Z"/>
  <path class="cls-20" d="M91.04,122.22c-.7.34-1.32.91-2.14.53l6.12-2.86c.05.11.12.19.21.28l-4.18,2.05Z"/>
  <path class="cls-20" d="M88.73,123.26l-5.19,1.98c-.08-.06-.14-.11-.19-.24l5.35-2.21c.22.01.31.36.03.47Z"/>
  <path class="cls-2" d="M80.18,124.7l.15.44c.03.09-.38.21-.54.08s-.2-.65-.4-.8-.6-.1-.99.06c-.23-.52-.33-1.13-.35-1.8.7.1.58.76.85,1.1.85-.1,1.07.29,1.28.92Z"/>
  <path class="cls-36" d="M52.39,127.09c-.28.01-.33-.54-.39-.7-.08-.23-.51-.47-.84-.27-.21.13-.41.28-.56.23-.24-.07-.54-.5-.36-.67l2.59.12c.17.32.17,1.25-.44,1.3Z"/>
  <path class="cls-8" d="M57.76,95.1c0,.15,0,.28-.08.34-.64.48-2.13,1.5-2.77,1.28-.09-.19-.32-.25-.55-.27l3.54-2.09c.07-.04.18-.17.15-.32.21.14.36.22.49.46l-.78.59Z"/>
  <path class="cls-23" d="M183.63,125.28c.18.24.48.5.49,1.06-.78-.41-1.41-.64-2.16-.87-.15-.16-.25-.53-.02-.67.74-.43,1.29-.06,1.69.47Z"/>
  <path class="cls-4" d="M116.75,131.61c-.46-.22-1.01-.54-1.47-.76,0-.38.21-.72.43-.76.36-.07.62.19.93.41l.59.43c.17.12-.23.58-.48.68Z"/>
  <path class="cls-48" d="M70.52,65.99l-2.63.67c1.94-.78.96-1.92,1.65-2.89-.09,1.03.03,1.65.98,2.22Z"/>
  <path class="cls-30" d="M46.93,86.11c.37-.21.82-.44.79-.93,1.16-.17,2.28-.64,3.63-.4l-3.22.86c-.33.09-.65.83-1.2.47Z"/>
  <path class="cls-59" d="M26.33,83.87l-.71.24c-.77.19-1.82.2-2.38-.68,1.18.07,2.23-.06,3.08.45Z"/>
  <path class="cls-61" d="M50.13,100.08l-3.88,3.86c.09-.37.22-.62.55-.95l2.52-2.52c.26-.26.51-.41.81-.4Z"/>
  <path class="cls-55" d="M65.64,56.24c-.32.11-.35,1.65-.78,1.15-.11-.12-.04-.34-.04-.55-.01-.5-.6-.51-1.24-.53.93-.23,1.79-.48,2.92-.35-.26.32-.64.2-.85.27Z"/>
  <path class="cls-47" d="M79.73,122.59c.03-.61.22-1.04.44-1.62.44.09.52.5.52.84,0,.42-.27.87-.96.79Z"/>
  <path class="cls-30" d="M189.85,134.96c-.97-.6-1.07-1.42-1.4-2.26.78.54,1.27,1.27,1.4,2.26Z"/>
  <path class="cls-26" d="M36.72,85.21c-.14.2-.2.45-.42.68-.37-.51-.78-.77-1.28-.75-.03-.51.42-.67.83-.62s.75.23.87.69Z"/>
  <path class="cls-31" d="M182.99,136.14c-.38.2-.84.02-.97-.22-.24-.44-.34-.89-.04-1.4l1.01,1.62Z"/>
  <path class="cls-31" d="M75.29,124.19c-.07-.39.43-.87.75-1.04.49,0,.29.47.24.67-.09.34-.51.74-.99.36Z"/>
  <path class="cls-31" d="M74.91,125.07c-.75.37-1.2.51-1.71.55-.12-.33.03-.49.12-.5,1.05-.08,1.46-.61,1.59-.05Z"/>
  <path class="cls-4" d="M109.53,127.68l-.64-.45c-.01-.18-.11-.57.03-.69.27-.24.76,0,.88.3.08.21-.04.6-.27.84Z"/>
  <path class="cls-27" d="M201.01,119.68c-.11.16-.17.3-.1.35,1.33.76,4.09,1.85,5.51,1.61.37.92,1.01,1.53,2.16,1.67.1-.2.3-.61.51-.68.69-.05,1.29.32,1.68.73-.03.14-.2.12-.51-.05-.54.21-.25.51.85.89.95.2,1.62.58,2.02,1.14l.68-.14c2.4,1.07,4.8,2.13,7.19,3.19l.07.57c.24-.4.62-.17,1.14.7l.4-.33,2.03,1.01c-.04-.38.05-.7.27-.95-.54-.42-.35-.55.29-.33l4.53,1.96c.44.14-.24.75-.53.86-.11.04-.27-.35-.24-.6-.47.29-1.1.14-1.89-.46-2.19-.58-.43.87.64,1.27l.03.58c.84-.07,1.24.2,1.19.8l.73-.1c1.69.91,3.29,1.95,4.79,3.14l.08.74c-.07-.01-.41,0-.45.13-.03.1.12.29.11.45l-1.18-.24c-10.15-7.25-22.12-12.14-33.47-16.43-.76-.22-1.11-.59-1.08-1.1l.22-.31c-1-.17-1.53-.5-1.58-.97.58.27,1.28-.07,1.89.16l2.02.75Z"/>
  <path class="cls-33" d="M181.06,112.31c.93.04,1.71.27,2.6.66l1.99.89,2.27.9,4.28,1.72,3.33,1.27,1.58,1.02c1.07.69,1.98.4,2.66,1.42-.57.08-.89-.16-1.3-.13l-.38.36-10.89-4.47c-1.93-.97-3.93-1.75-6.02-2.36l-.15-.56c-.68.33-1.04.4-.98-.49-.25-.4.09-.48,1.02-.23Z"/>
  <path class="cls-18" d="M242.46,137.95l-.31.34c-.38.03-.85-.18-1.4-.63-1.25-.38-2.36-1.08-3.34-2.09-1.02,1.41-1.57,1.82-1.88-.24l-.26-.3c-.89.68-1.47.64-1.74-.14.33-.8-.1-1.3-1.3-1.5-.53.67-1.07.8-1.62.4.22-1.64-.39-2.55-1.27-.64l-.41.32-1.19-.8c.03-.3.22-.48.58-.54.09-.43.31-.72.65-.86.13.12.35.18.51.11.12-.05.2-.19.26-.37l2.1,1.01,2.75,1.33,5.76,3.33c.77.45,1.39.86,2.12,1.27Z"/>
  <path class="cls-11" d="M210.77,123.36c.71-.14,1.39.6,2.04.77.88.23,1.36.34,2.05.89.47.38,1.27.45,1.78.65,0,.11-.01.21-.06.24-.22.14-.64-.24.04-.02,1.32.43,2.75,1.02,3.94,1.57.29-.17,1.27.34,1.42.59.04.07-.6,1.42-.91.91l-2.43-1.23c-1.82-.92-3.86-1.28-5.52-2.39l-.25-.46-2.6-1.08-.02-.49c.13.02.39.07.51.05Z"/>
  <path class="cls-47" d="M201.01,119.68c.78.29,1.51.63,2.31,1.04,1.02.52,2.3.32,3.11.92-.05.36-.45.79-.93.6l-5.65-2.25c.36-.45.81-.31,1.16-.31Z"/>
  <path class="cls-51" d="M181.06,112.31c-.36-.02-.74-.1-1.02.23-.07.21-.14.2-.21-.02-.09.16-.24.4-.37.37-.62-.14-2.11-.76-2.75-1.07-.81-.14-1.22-.48-1.25-1,.28-.08.55-.22.79-.53,1.48.94,3.17,1.49,4.81,2.02Z"/>
  <path class="cls-54" d="M225.2,129.05c-.18.03-.31.14-.29.33-.52.28-1.15.13-1.89-.44-.55-.42-.82-.18-.81.71l-1.14-.7c.23-.18.6-.68.4-.96-.2-.3-.66-.47-.92-.54-.4-.14-.4-.22.03-.29,1.56.6,3.07,1.21,4.61,1.88Z"/>
  <path class="cls-55" d="M216.65,125.67l3.94,1.5-.03.29-1.54-.39-3-1.17c.27-.2.49-.19.63-.22Z"/>
  <path class="cls-41" d="M237.42,135.56l2.03,1.61.06.6c.78.13,2.1.91,2.1,1.66.91-.2,1.26-.02,1.05.54l.22.22.28-.2c.39.31.6.28.64-.09-.38-.52,0-.48.5-.27l3.13,2.44c.24.36.58.62,1,.77.42.58.92,1.04,1.23,1.85-.86,1.09-1.63,3.17-1.82,4.56-.1.77-1.19,1.07-1.74,1.75.79.25,1.8-.08,2.35-.73l.5-1.61c.64-.22.98-.65,1.35-1.05-.21-.84.4-1.1,1.02-.54.91,1.37.28,3.32-1.35,4.03l-3.72.88c-.64.06-2.33.1-1.99-.74l1.82-1.69c.47-.81.54-1.55.31-2.66-.19-.89-1.38-2.17-2.38-1.52-1.82,1.18-3.46,2.52-5.73,2.98.21-.53.61-.66,1.07-.98,1.36-.96,2.26-3.15,1.2-4.69-1.15-1.67-2.7-3.1-4.36-4.27l-1.67-1.17c-1.57-1.61-3.74-2.54-5.6-3.78-.05-.07-.15-.32-.07-.44l.83-1.35c.28-.46,1.01.09,1.26.4.33.4.21.88-.05,1.55.74.02.76-.56,1.12-.78.97.22,1.58.55,2.28,1-.24.47-.32.83-.31,1.21.55.14.79-.45,1.03-.57.83.02,1.27.93,1.08,1.94.58-.26.41-.87.25-1.27.63-.1.79.25,1.07.41Z"/>
  <path class="cls-16" d="M242.16,138.29c.71.91,1.31.69,2.16,1.36-.21.02-.4.09-.5.27l-.24.21c-.34-.22-.57-.2-.68.07l-1.27-.77c-.05-.83-1.31-1.47-2.1-1.66-.57-.45-1.15-.71-1.4-1.52-.08-.22-.7-.43-.69-.69l2.77,1.52c.72.39,1.47.58,1.97,1.21Z"/>
  <path class="cls-46" d="M251.34,147.07c-.43.07-.78.27-1.02.54,0-.11.09-.28-.08-.53-.4.35-.95.66-1.45.36l1.24-2.34c.82.57.92,1.38,1.32,1.97Z"/>
  <path class="cls-54" d="M238.09,151.43c1.27.09,2.55.18,3.84.24h.48c.25-.05,1.54-.3,1.62-.28.33.09.14.8-.43.75l-3.11-.05c-.32,0-.66-.29-1.21-.22-.94.13-1.94,0-2.64-.48l1.44.03Z"/>
  <path class="cls-23" d="M246.28,151.99c-.91.22-1.75.17-2.68.16l.25-.51-1.45.04c.21-.47,1.05-.16,1.4-.24l2.3-1.88c-.36.62-.82,1.17-1.59,1.71.4.63,1.09.65,1.77.72Z"/>
  <path class="cls-26" d="M248.45,142.85c-.17-.11-.48-.08-.51.1l-.1.52c-.13.7-.96,1.33-1.72,1.1.72-.88,1.27-1.6,1.33-2.49.34.27.74.41,1,.77Z"/>
  <path class="cls-41" d="M169.52,1.12c.26.06.49.24.69.53.94-.4,1.76-.37,2.48.09.89-.17,1.71-.3,2.49.29l1.01-.16c.6.38,1.2.43,1.79.17.57.36,1.12.54,1.8.55,1.13,1.63,2.33,1.61,4.1,1.3,1.42,1.39,1.63,3.2.64,5.43-.12,9.3-.17,18.61-.13,27.94.6.66.85,1.48.75,2.45l.81-.31,16.77-.05c.52,0,1.59,1.48,1.58,1.88,0,.48-2.94,4.72-3.45,5.44-1.24,1.25-2.16,2.61-2.78,4.07-1.11.75-2.07,1.7-2.88,2.83-1.27.58-2.14,1.18-2.84,2.43-.76.29-1.31.81-1.67,1.56l-.31.36-.89.42c-1.27-2.13-3.15-1.01-.89.55-.09.38-.42.66-.99.84-4.31,3.01-11.38,6.7-16.39,8.06-11.55,2.62-23.19,3.83-34.84,5.04-1.01-.12-1.87-.14-2.84.21-9.46-6.08-20.34-9.83-31-13.11l-2.05-.84c-4.47-.76-8.92-1.62-13.33-2.57-.48-.67.11-1.02.72-1.29.39-.84,1.15-1.1,2.3-.79.7.04.69-1.96.66-2.47-.02-.35-3.34-.64-3.28.24,1.14,1.48.38,3-1.38,2.12-.24-1.99-1.71-3.19-2.29-.68-.42.58-.75,1.2-1.01,1.86-.69.29-5.36-.49-5.57-.93-.59-1.23,3.87-9.14,4.68-10.57.57-.51.81-1.11.74-1.81.65-1.56,1.75-2.94,3.04-4.03,10.09-12.77,23.75-23,38.93-28.84,8.22-3.16,17.14-5.8,26.04-6.71,1.36-.71,2.7-1.04,4.05-.98,1.05-.42,2.24-.38,3.26.05,1.08-.85,2.95-.67,4.21-.17,2.44.06,4.87-.07,7.27-.38Z"/>
  <path class="cls-41" d="M169.52,1.12c-.73-.23-1.56.63-2.23.66l-5.23.2c-.89-.95-2.18-.96-3.27-.53-.86,1.62-1.27-.17-3.04-.04-.25.02-.41.35-.6.74-2.2-1.39-2.25.67-4.58.96-5.17.63-10.24,1.37-15.16,3.05l-10.53,3.59-5.06,2.18-6.23,3.11-6.68,4.12-4.13,2.83-2.17,1.91c-1.36,1.19-2.81,2.05-4.09,3.33l-5.53,5.52-4.88,5.73c-.57.67-1.62.91-1.9,1.92-.87.64-1.17,1.65-1.02,2.76-1.67,2.03-2.68,4.56-3.8,6.82-.63,1.26-1.43,2.83-1.77,4.41l4.96.84c0-.92.59-1.21.85-1.8.27-.62.42-1.79,1.48-1.7.89.08,1.68,1.28,1.58,2.35.33.21,1.23-.08,1.23-.57-.24-.46-.92-1.22-.58-1.78.47-.77,1.33-.6,2.09-.48.57.09,1.31-.31,1.82.16s.08,1.13.08,1.63c0,.65.21,1.06-.16,1.46-.95,1.02-2.16-.33-2.54.68-.2.54-.6.57-1.26.89l3.71.63,5.2,1.21c1.26.29,2.62.43,3.92.59,1.08.13,1.71.65,2.68.96l6.17,1.98c2.74.88,5.37,1.71,8,2.8l5.59,2.31c1.52.63,2.89,1.41,4.35,2.11s3,1.37,4.39,2.36c.79.56,1.66.75,2.42,1.63,1.03-.79,2.28-.15,3.27-.35,1.27-.26,2.18-.11,3.43-.27l2.58-.32,8.18-1.13c1.65-.23,3.3-.16,5.02-.46l7.37-1.29c4.44-.78,9.21-1.49,13.39-3.66l9.16-4.76c.83-.43,1.31-1.16,2.38-1.21-.74-.51-1.13-.68-1.24-1.09-.18-.72.02-1.26.57-1.4,1.73-.47,1.44,1.76,2.67,1.2l-4.68,3.67-5.79,3.27-5.45,2.45c-4.02,1.81-15.46,3.47-20.85,4.12l-6.38.77c-4.84.83-10.11,1.51-15.03,1.17,0-.13-.03-.23-.09-.26-2.69-1.36-5.43-2.77-8.05-4.19-.07-.04-.1-.14-.12-.27-.22.22-.46.15-.72-.22-.75-.16-.94-.08-.55.24l-.29.48c.06.23,0,.55-.19.56-.77.06-3.7-1.18-4.57-1.56-.05-.02-.06-.13-.06-.27-.33-.04-.65-.06-.52.3l.15-.1c1.67.68,3.37,1.2,5.12,1.58.35.35.6.44.76.27-.87-1.51-.25-2.16.89-.78.2-.46,1.41.21,1.24.69.58.39,1.03.94,1.35,1.65.82.35,1.61.76,2.36,1.23.35.32.47.77.37,1.33-1.17,0-2.32.2-3.44.6-.33.55-.52.44-.44-.19-1.2-.75-2.59-1.08-4.17-1-2.03-.49-4.05-1.05-6.05-1.68-.02.01-.37.36-.34.37,1.61.7,3.52,1.02,5.24.96.61.11.93.41.95.88.76-.03,2.43.16,1.27.9l-.37.63c-1.71.46-3.5.68-5.26.85-.1,0-.21-.1-.32-.25-2.74.46-5.49.84-8.26,1.13-1.37.22-3,.77-4.4.14l-3.27-1.47c-1.54-.69-2.81-1.66-3.99-2.68-.7-1.26-.08-1.82,1.19-2.16,3.02-.34,3.47-1.1.28-.84-.65.25-1.22.27-1.72.06-.23-.11-.42-.22-.6-.17-.33.1-.39.38-.41.69l-.15,2.64,3.14,2.18c-1.87.1-3.43-.3-5.14-.72-3.9-.96-7.73-1.6-11.69-2.19-2.37-.35-6.86-1.25-7.59-2.13.06.07-.21-2.43-.02-3.76l1.05-7.5c.28-1.3.69-2.57,1.23-3.81,5.55.88,11.22,1.88,17,3l.73.37c.73.04.99-.06.76-.29-4.37-.48-8.79-1.25-13.25-2.29l-5.27-.63.98-2.92c1.9-4.31,5.04-10.93,7.95-14.4l5.44-6.5c4.82-5.76,17.73-15.55,24.48-18.68l5.75-2.67c4.23-1.96,8.47-3.42,12.92-4.85,6.02-1.93,11.97-3.17,18.25-3.79.76-.08,1.34-.6,2.28-.41l2.08-.23,3.61-.22,9.84.11Z"/>
  <path class="cls-41" d="M174.56,110.2c.27.26.54.49.9.63l4.37,1.7c.34.45.65.49,1.19.51l2.96,1.05c1.35.2,2.35,1.01,3.57,1.51l6.01,2.43,4.9,2.05,1.27.66,6.39,2.44c3.19,1.22,6.11,2.63,9.22,3.99,7.34,3.22,12.47,6.17,18.86,10.68,1.05.74,1.83,1.75,2.79,2.72l1.91,1.93c1.15,1.16.86,3.06-.51,3.97-1,.66-2.17.91-3.41.89l-4.04-.06c-4.23-.74-8.48-1.41-12.39-3.19l-8.73-3.97-4.4-2.33-6.81-3.97-5.17-3.45-.82-.87-7.47-5.73-5.44-5.33-4.39-5.69-1.53-1.88c-.81-1.06-.16-1.22.78-.68Z"/>
  <path class="cls-41" d="M121.32,83.42c.37,1.09.07,2.08-1.21,1.2.99.81.77,2.57-.43,3.04,1.04.42,1.38,1.09,1.01,1.99l-.99,3.28.34.43c-2.51,7.7-7.09,13.1-13.05,18.62-.52.48-4,3.48-4.56,3.61-.08.02-.18-.06-.29-.17.02.17.02.31-.05.35-.61.43-2.13,1.36-2.79,1.63-.46.47-.71.44-1.28.14l-5.89-5.29c-.34-.31-.56-.69-1.01-.7-.02-.39.24-.6.63-.81l2-1.08c.85-.46,1.34-1,2.19-1.47s1.48-1.44,2.42-1.61l.17-.5c1.67-1.17,3.28-2.42,4.83-3.76l.75-.09-.13-.2c6.21-5.44,10.89-12.54,14.32-19.88.92-.19,3,.23,3.03,1.24Z"/>
  <path class="cls-41" d="M156.31,98.72c3.09,1.77,11.16,7.16,12.76,9.22-.05,1.29.16,2.58.64,3.88.38-.03.58.26.6.87-.14,1.22.18,2.48.96,3.78-.14.17-.17.41-.09.7l.31-.09c.14.61.21.47.22-.44-.56-.27-1.29-1.88-1.47-2.61-.16-.63-.26-1.97.54-1.47l1.48,3.13.39.12c1.06,2.75,2.47,5.47,5.2,6.75-.18-.77,0-1.29.81-.87.2.11.67.41.67.72l.07,4.07c.04,2.31-1.02,4.2-2.76,5.69l-2.05,1.76-2.45,1.34c-.74.68-1.7,1.03-2.64,1.36l-7.63,1.55-5.14.44-9.25-.4c-5.36-.6-10.41-1.71-15.58-3.1-2.69-.72-5.02-1.77-7.63-2.7-5.21-1.85-9.98-4.3-14.79-7.03-3.02-1.71-5.74-3.58-8.45-5.72l-2.03-1.35-.36-.56c.06-.19,3.02-1.77,3.45-1.98.05-.03.16.06.28.18l.18-.43c10.41-7.39,18.9-18.61,19.45-31.8.09-.16.26-.25.42-.32.47-.2,5.2,1.48,6.04,1.78,3.09,1.1,6.84,2.57,9.71,3.8.55.07,1.14.19,1.44.68,5.65,2.52,11.14,5.31,16.48,8.38-.08.24,0,.46.21.67Z"/>
  <path class="cls-41" d="M172.6,1.32l6.98.85,1.8.33,1.63.63c.76.29,1.69.15,2.55.51l7.62,3.18c7.98,3.33,14.42,10.53,15.26,19.33.19,2,.2,3.7-.19,5.66-1.29,6.34-3.99,11.11-7.81,16.19-1.88,2.5-3.89,4.66-6.29,6.67-1.16.98-2.25,2.27-3.46,2.89,0-.41.07-.86.24-1.24.18-.4.87-.36,1.27-.47.39-1.26,1.23-2.29,2.61-2.24.79-.19,1.3-1.57,1.7-2.32l1.49-.55c-.39-1.03.1-1.38.58-1.96l1.93-2.35,3.39-5.15-1.01-1.43-16.97.05c-.27,0-.61.39-.8.33-1.37-.44.43-1.59-1.19-2.65l.05-27.47c0-1.53,1.06-2.98.58-4.58l-.88-1.29c-1.6.8-3.32.18-4.08-1.27-.68,0-1.38-.07-1.6-.83-.36.39-.57.51-.91.57-.27.05-.57-.68-.89-.7s-.98.88-1.39.36l-.44-.57c-.33-.42-1.26.54-1.82.42-.19-.04-.29-.38-.51-.58-.67-.61-1.12.78-2.02.48-.4-.13-.46-.55-.47-.96l3.08.2Z"/>
  <path class="cls-25" d="M125.41,74.42l.44.19c1.02,0,1.51.29,1.45.87l.54.15c.02-.16.05-.28.08-.28.47-.03.92.07,1.37.2,1.73.49,5.41,2.38,7.1,3.29l.05.57c.4.51.13.6-.8.28l-.42.35-8.85-3.49c-.13,0-2.3.74-2.4.86-.34.36-1.08,2.38-1.17,2.97l8.62,1.17.22.51c1.6.53.05.76-.97.52-.03.66-.74.36-.9-.15-.07.52-.6.3-.97.04l-.47.34c-1.66-.32-3.32-.5-5-.55l-.1.47c1.13.17,2.22.46,3.29.88l.31.58c.03-.11.07-.19.14-.23.15-.07,2.76.56,2.72,1.06.09-.17.26-.4.39-.36,8.79,3.29,17.33,7.59,25.73,12.04l.87,1.1c-.26.13-.53.22-.5.44.02.13.14.27.15.46l-5.99-3.42-10.97-5.3c-.17-.08-.27-.67-.44-.67-.2,0-.52.04-.81.21l-8.78-3.45c-1.99-.96-6.59-2.41-6.83-2.23-.45.34-.13,4.29-1.4,8.07-1.75,5.21-4.12,10.14-7.76,14.29l-3.3,3.41-3.06,2.95c-1.43,1.38-2.94,2.46-4.59,3.38-.7.16-.78-.06-.24-.53,1.01-.5,1.65-1.51,2.6-2.2,4.4-3.2,9.5-8.48,11.88-13.35l1.58-3.23,1.51-3.73,1.08-3.73c-.09-.87-.03-1.77.18-2.7l.03-1.76c.51-.21.66-.89.33-1.31-.83-.32-1.78-.89-2.81-.87l-2.27,4.79c-2.8,5.11-6.39,9.58-10.52,13.65l-1.62,1.28c-1.15.38-.88-.22.83-1.81l1.21-1.41c-.1-.37.15-.69.75-.95,2.06-2.46,3.8-4.88,5.65-7.49.37-.52,4.51-7.32,4.53-7.98,0-.36-6.22-1.89-6.76-2.01l-.47-.6c1.11-.2,2.2.41,2.91-.47l-4.12-.57c-.18-.02-.46-.27-.46-.39s.27-.38.44-.41l8-1.59-.13-.35-5.08.7c-1.16.16-2.2.5-3.3.26l8.23-1.31c2.07-.33,4.12-.35,5.97-1.05.19-.48.49-.67.9-.56l.04-.43c.36-.59,1.69.04,2.17.56Z"/>
  <path class="cls-41" d="M135.27,85.26c.05-.16.09-.29.12-.29,4.61.53,9.55,1.43,14.01,2.68,2.92,1.54,7.67,6.51,10.09,9.07l-.1.51c.65.64,1.07,1.59,1.23,2.73-1.5-.57-2.75-1.36-3.97-2.14-2.41-1.52-4.91-2.86-7.6-4.14l-8.42-4.02-10.96-4.61c-.78-.37-.79-.61.05-.85-.13-.53-.05-.55.4-.57,1.47.65,2.94.99,4.41,1.03.04.32.29.51.74.6Z"/>
  <path class="cls-63" d="M146.08,77.07l-.43.34c-.06-.2-5.49-2.3-5.27-1.28l2.44,2.29-.12.56c-.18.12-.38.24-.61.21-.64-.07-2.37-1.8-2.83-2.39.38.65.83,1.25,1.35,1.79,2.16,1.24,4.29,2.55,6.37,3.92.56,1.23.07,2.17-1.29,1.69-.49.42-2.25-.19-2.24-.87l-1.06-.24c-1.88-1.23-3.84-2.34-5.88-3.34l-.07-.35-1.25-.64-6.1-2.78c-.44-.2-.84-.45-1.25-.36-.79-.04-1.42-.94-.34-.61,1.8-.21,3.59.05,5.24.78-.07.7.74,1.13,1.34.7.72-.73,1.85.66,2.87.52.23-.03.79-.41.61-.69l-1.13-1.81c1.39-.31,2.66.12,3.68.81,1.87-.6,4.45.53,5.96,1.75Z"/>
  <path class="cls-63" d="M146.08,77.07c1.7.7,3.23,2.1,4.42,3.64l3.62,4.69-3.82-.41c-.68-.46-1.33-1-1.94-1.61-1.92-1.21-3.8-2.48-5.65-3.82v-.59s-1.13-1.11-1.13-1.11c-.58-.57-1.32-1.04-1.89-1.84.86-.75,1.98-.77,2.94-.38l3.46,1.42Z"/>
  <path class="cls-63" d="M149.41,78.22l-3.04-2.49-1.87-.75c1.13-.25,1.84.44,3.04-.53,2.82-.25,5.58.11,8.29,1.32-1.25,2.7-1.58,5.16-1.38,8.16-1.81-2.03-3.06-4.09-5.05-5.71Z"/>
  <path class="cls-22" d="M135.45,84.67l.28-.45,9.91,1.45c-.29-.16-.28-.41-.16-.74.23-.28.7-.28,1.41,0,.55-.17.92-.1,1.11.21.31.07.3.24-.01.37-.14.63,2.28,1.1,2.59.61l1.72.67c.48.19,1.02-.39,1.49.12l-.3.84c-.06.02-.3-.09-.4-.06-.15.04-.12.32-.03.41l.14.29c-.29.27-.68.28-1.16.05,1.38,1,7.6,6.79,7.83,7.84.03.12-.66-.59-.22-.78.4.49,1,.87.96,1.64-.4.03-.66-.35-.91-.44-.29-.11-.4.36-.32.52l-6.76-6.62c-1.3-1.27-2.78-2.37-4.49-2.96l-5.18-1.07c-.84-.17-1.4-.2-2.16-.33l-5.53-.99c-1.61-.35-.99-1.28.18-.59Z"/>
  <path class="cls-52" d="M162.05,86.16c.3,1.62-3.96,1.56-4.12.57-.46-2.77.12-5.64,1.04-8.51,1.69,2.47,2.57,5.19,3.08,7.94Z"/>
  <path class="cls-63" d="M235.46,150.5c-.96-.27-1.2-.6-.73-.99.45-1.98,2.05-.08,4.59-.61,1.75-.37,3.34-.9,4.47-2.32.23-.29.76-.44,1-.3.21.12.54.36.66.7.36,1.02-.13,2.14-.87,2.86s-1.8.72-2.85.78l-2.69.15c-1.3.07-2.42.04-3.59-.28Z"/>
  <path class="cls-60" d="M166.6,101.96c-1.82-1.1-2.57-2.89-3.7-4.38-1.65-1.96-.92-5.12-.02-7.94.67.94.86,1.99.99,3.1l1.33,4.71c.2,1.56,1.06,2.78,1.4,4.5Z"/>
  <path class="cls-52" d="M165.07,80.95c-.67-.31-.22-1.08-.4-1.4-1.14-2.02-2.52-3.51-4.47-4.92,2.4-1.25,6.45.48,7.01,3.11l-2.15,3.2Z"/>
  <path class="cls-33" d="M142.7,78.98l4.03,2.86c1.34.95,2.77,1.72,3.56,3.16-.29-.03-.52-.19-.78-.35-.24.06-.61.43-1.12.32l.05.79c-.12.47-.58.22-.46-.23v-.37c-.66.04-.66-.29-.05-.53.21-.58.05-.63-.49-.16-.1.84-1.88.43-1.77-.26.21,0,.71.07.87-.14.3-.38.23-.99-.03-1.39-.2-.3-.68-.45-1.13-.71l-4.05-2.33c-.95-.55-1.37-.8-1.96-1.8-.43-.72-1.39-1.54-.43-2.58.69,1.74,2.2,2.9,3.75,3.72Z"/>
  <path class="cls-44" d="M163.35,85.26l-1.55-3.84c-1.28-3.17-2.49-4.15-2.6-4.5-.06-.21.23-.67.47-.57,1.77.71,2.77,2.35,3.93,3.71.74.88.65,1.29.21,2.39-.27.68.36,1.98-.46,2.83Z"/>
  <path class="cls-42" d="M167.61,138.09c.95.1.79.49.05.93-.76.32-1.46.39-2.37.55-.74.13-1.42.56-2.28.35-.28-.07-.56.15-.7.24-.84-.23-1.92.44-2.85.42-1.75-.04-3.34.36-5.04.23l-7-.64c.17-.18.09-.44-.24-.78.13-.12.43-.34.74-.22,1.34.5,2.74.27,4.05.48,1.66.27,3.06.45,4.59-.58-.04.65.03,1.18.47,1.3.14-.19.26-.81.58-.83l2.28-.15c1.19-.32,2.24-.17,3.35-.17.58-.16,1.41-.44,2.15-.61l2.22-.52Z"/>
  <path class="cls-45" d="M167.07,99.04c.3.6-.44.77-.51.23l-2.51-10.49c-.26-1.07-.05-2.13.71-3.02l.49,1.98c.29,1.16.26,2.06.45,3.21l1.36,8.08Z"/>
  <path class="cls-13" d="M173.16,112.55c-.23.07-.57-.08-1.01-.44-.63-.08-.71.4-.22,1.45.53.12.99.62.7,1.16.22.01.42.14.6.39.8,2.14,1.91,4.58,3.85,5.88l.5-.31c.24.41.64.78,1.06,1.01-.22,0-.45.19-.42.35l.18.95c-.4.27-1.32-.14-1.74-.53l-1.88-1.72c-1.19-1.53-1.8-3.39-2.54-5.05-.57-1.25-1.18-2.38-1.81-3.38-.64.08-1.05-.75-.65-1.14.09-.04.27-.19.26-.29.27-.09.56-.18.87-.25,1.01.25,1.91.94,2.24,1.93Z"/>
  <path class="cls-42" d="M173.16,112.55c.17.51.52.96.86,1.39l.29.68c.85,1.25,1.66,2.58,2.43,3.99l-.08.43.93,1.63c.04.19.11.65-.06.74-1.33.74-4.31-4.11-4.9-6.7-.3-.3-.18-.59.37-.86-.31-.83-.67-.93-1.07-.3-.25-.3-.5-.73-.46-1.28.01-.22.64-.52.82-.37l.88.65Z"/>
  <path class="cls-38" d="M147.22,72.19c-.11.19-.34.34-.64.37l-4.86.59-2.88.22-3.12.25c-1.56.12-3.01-.06-4.57.37-.53.14-1.2-.1-1.63.13-.95-1.29-.4-1.6,1-.97l-2.25-1.18c-1.15-.48-2.17-1.21-3.07-2.16l-1.24-.69c-.34-.26-.5-.39-.03-.49.2,0,.43-.03.67.1l5.95,3.13c.83.44,1.53.81,2.29,1.36.66.47,4.04-.01,6.48-.2l3.34-.25,4.57-.57Z"/>
  <path class="cls-44" d="M153.21,88.39c.4.26,1.15.63,1.44,1.08.56.87,1.19,1.35,1.79,2.09l3.22,3.95c.07.28.34.58.22,1l-6.87-6.78c-.71-.7-1.7-.96-2.21-1.86.87-.09,1.75.1,2.41.52Z"/>
  <path class="cls-42" d="M168.06,77.18c-.5-1.57-1.19-2.56-2.74-3.34.8-.5,1.64-.29,2.53-.4l3.78-.47c-1.27,1.46-2.3,2.51-3.57,4.21Z"/>
  <path class="cls-44" d="M156.22,86.16c-.47-.32-.63-.7-.62-1.19l.06-5.54c0-.81.54-2.13,1.17-2.57.49-.35,1.1.61.93,1.09-.7,2.01-1.23,3.95-1.34,6.07-.04.74.17,1.51-.21,2.14Z"/>
  <path class="cls-11" d="M129.51,74.12c-.13.07-.38.01-.51.01l-1.18.24c-.44.66-1.21.58-1.98.23.93-.52,1.96-.79,3.31-.73-.47-1.56-2.82-1.44-3.3-2.5-.25-.54-.17-1.21-.66-1.57.6.33,1.72.54,2.16,1.16.38.54.67.33,1.1.56l3.62,1.89c-1.04.49-1.95.26-2.76-.29-.08.41.26.49.33.64.05.1-.05.3-.13.36Z"/>
  <path class="cls-1" d="M231.41,148.6c.78.21.91.47.22.95-.33.14-.75.18-1.26,0l-8.25-2.85c-.49-.02-.4-.68.07-.56l9.22,2.45Z"/>
  <path class="cls-60" d="M160.39,93.66l-1.22-2.16c-.36-.63-.37-1.43-.46-2.26.93-.17,1.76-.16,2.77,0l-1.09,4.42Z"/>
  <path class="cls-11" d="M168.54,71.54c-1.13.37-1.81.5-2.81.54-1.25.05-2.58.58-3.91-.09,1.64-.97,3.38-.86,5.09-.97,1.26-.08,2.46-.51,3.75-.08-.52.78-1.49.4-2.11.61Z"/>
  <path class="cls-6" d="M169.78,111.16c-.03.17-.14.63.11.68.2.04.56-.16.9-.32l.23,1.4,1.23,2.76-1.69-3c-.27.43-.13.91,0,1.21l1.15,2.74c-.1.34-.28.51-.52.53l-.94-2.46c-.16-.41-.46-.38-.32-.96s-.48-2.76-1.08-4.17l.23-1.64c.38.49.07.91.1,1.52.02.5.71,1.16.62,1.7Z"/>
  <path class="cls-14" d="M134.08,76.49c-.27.27-.59.53-.84.33l-.91-.74c-.62-.05-1.21-.46-1.78-.78-.87-.5-2.19-.03-3.05-.27.01-.24.11-.43.31-.41,1.23.14,2.9.3,4.1.03l1.65-.02c.18.09.24.62.22.83s-.83.05-.91.24c-.22.51.69,1.03,1.21.8Z"/>
  <path class="cls-8" d="M176.28,116.23l2.01,2.95c.38.56,1.27.85,1.28,1.78-.5.05-.92-.26-1.22-.66l-1.31-1.75c-.15.06-.28.09-.3.06-.47-.68-1.06-1.66-1.36-2.44-.1-.27.71-.09.91.06Z"/>
  <path class="cls-13" d="M176.28,116.23l-.4-.06c-.11-.02-.07.37.04.54l1.11,1.84c-.21.11-.31.27-.37.51l-1.78-2.98c-.4-.67-.81-1.1-1.66-1.24.25-.45.5-.37.65-.43.17-.07.23-.29.15-.46l1.44,1.82.82.47Z"/>
  <path class="cls-15" d="M170.67,137.77l-3.02,1.25c.2-.28.19-.6-.05-.93l2.13-1.08c1.01-.18,1.89-.26.93.76Z"/>
  <path class="cls-43" d="M102.38,115.96l-3.06,1.7c-.24.13-.34.49-.31.66l-.99-.75c1.03.11,2.08-1.12,4.12-2.13,0,.18.06.37.24.53Z"/>
  <path class="cls-5" d="M129.01,74.14c-.14.27-.55.27-1.17.36l4.08.15c-.28.96-1.91-.21-4.41.38-.31.07-.34.32-.07.44l.4.17c-.7.15-.81-.41-1.99-1.02.94.1,1.73-.49,3.16-.47Z"/>
  <path class="cls-46" d="M148,85.52l.46.23c.67-.18,1.54.14,2.13.38.12.21.27.38.2.73-2.62-.03-4.08-1.31-2.79-1.34Z"/>
  <path class="cls-35" d="M147.41,140.17c-.16,0-.4-.25-.42-.4-.02-.16.08-.29.18-.38l4.75.83-4.51-.05Z"/>
  <path class="cls-50" d="M173.58,136.07c-.25.9-1.02,1.57-1.93,1.41-.73-.24-.89-.56-.17-.93.68-.18,1.41-.9,2.1-.49Z"/>
  <path class="cls-1" d="M173.31,70.05c-.7.53-1.6.28-2.11-.37l1.72-.51c.25-.08.47.02.57.15.16.21.1.51-.18.72Z"/>
  <path class="cls-42" d="M233.8,148.8l.2.22c.97,1.16.44,1.33-.9,1.03-1.92-.43-.84-1.72.69-1.25Z"/>
  <path class="cls-30" d="M165.46,103.19c-.98-.03-1.69-.95-2.18-1.84,1.06.14,1.72.82,2.18,1.84Z"/>
  <path class="cls-53" d="M177.41,67.48c-.57.74-1.43,1.66-2.52,1.26.66-.75,1.39-1.16,2.52-1.26Z"/>
  <path class="cls-30" d="M233.8,148.8c-.33,0-.68,0-1,.11-.2.07-.41.57-.17.78.41.36,1.07.34,1.63.26-.21-.32-.26-.61-.25-.92.2.22.51.38.72.48.08.42.35.75.73.99-1.48-.4-2.65-.04-3.83-.95,0-.37-.04-.7-.22-.95,1.32.35,1.85-.38,2.39.2Z"/>
  <path class="cls-6" d="M174.56,110.2c-.14-.02-.39-.1-.6-.05-.23.06-.22.49-.18.72-.38-.47-1.34-.75-1.39-1.8.8.31,1.64.61,2.17,1.12Z"/>
  <path class="cls-12" d="M153.8,86.92c.25.28,1.16.28.79,1.13-.38-.1-.82-.12-1.1-.29-.24-.15-.46-.47-.52-.8l.82-.04Z"/>
  <path class="cls-43" d="M157.26,91.02c-.86-.34-1.44-1.04-1.64-2.02.9.3,1.44,1.04,1.64,2.02Z"/>
  <path class="cls-1" d="M173.58,136.07c.11-.29.5-.67.75-.87.17-.08.84-.11.88.12.08.43-.46.7-.68.85-.32.23-.64.08-.95-.1Z"/>
  <path class="cls-6" d="M170.92,110.62c.1.17.05.72-.14.71-.4-.03-.57-.34-.74-.46l-.04-.9c.6-.14.69.49.92.65Z"/>
  <path class="cls-30" d="M156.29,74.87c-.53-.15-.97-.35-1.5-.67.27-.42.58-.34.93-.27.24.05.76.14.57.94Z"/>
  <path class="cls-23" d="M241.93,151.67h-3.37c-.26.01-.44-.08-.46-.24h3.37c.26,0,.44.08.46.24Z"/>
  <path class="cls-40" d="M171.65,137.48l-.56-.1c-.19-.03-.3.31-.42.39.1-.2.11-.65-.09-.72-.28-.09-.59-.03-.84-.05l1.74-.45c-.05.33,0,.67.17.93Z"/>
  <path class="cls-40" d="M172.13,135.27c-.59.91-1.68,1.16-2.64,1.36l2.64-1.36Z"/>
  <path class="cls-41" d="M87.23,109.65c.12.63.52.99.96,1.63-1.36.17-2.18,1.24-3.33,1.68l-6.25,2.41c-1.49.57-2.95.77-4.53,1.04-5.06.85-10.11,1.63-15.13,1.34-2.44-.14-4.94-.41-7.3-1.18-2.47-.93-4.59-2.11-6.08-4.29-.8-2.93.12-5.9,2.22-8.06,1.17-1.58,2.53-2.86,4.05-4.09l2.61-2.12c.29-.22.43-.48.42-.76,1.07-.91,2.21-1.53,3.41-1.88l2.72-1.64,3.75-1.81c3.2-1.54,6.31-2.96,9.8-3.91l.85,2.38c2.36,5.11,5.08,9.87,8.21,14.56l3.63,4.71Z"/>
  <path class="cls-41" d="M109.84,80.02c.95.23,1.88.37,2.82.65l5.16,1.56-3.02,5.78c-2.34,3.68-4.69,7.16-7.56,10.42-.24.27-.8.51-1.1.61-1.15,1.32-2.27,2.6-3.37,3.84l-4.19,3.19c-.22-.17-.5-.16-.83.05l-7.36,4.44-5.31-6.14-4.62-6.64c-2-3.29-3.24-6.88-4.44-10.55,3.33-1.68,6.65-2.39,10.11-3.47,6.7-2.1,13.3-3.94,20.25-5,1.07.83,2.26.97,3.47,1.26Z"/>
  <path class="cls-41" d="M72.22,82.78c-.48.19-1.02.27-1.3-.2-.56.28-1.2.42-1.92.42l-1.18.45c-.24.09-.5,0-.58-.15-.06-.11-.04-.39.13-.62-.69-.52-1.28.26-1.94.29l-2.82.12-1.03.46c-3.31-.26-6.46.34-9.72.3l-3.31-.04c-2.24-.02-4.41.16-6.56.12l-2.85-.04c-6.25-.1-12.41-.56-18.5-1.67l-2.2-.61c-3.66-.44-9.86-3.04-9.23-4.94.46-1.37,2.08-2.1,3.32-2.68,3.4-1.6,6.98-2.22,10.69-2.75,3.46-.5,6.7-.95,10.2-1.07,5.63-.19,11.17-.12,16.79.03l6.05.16,5.64.61,9.46,1.1c.1,3.45.79,6.69,1.46,10,.08.41-.44.58-.62.72Z"/>
  <path class="cls-41" d="M85.39,81.24c-.94-.13-1.74-.05-2.4.22-1.81.49-3.56.53-5.39.78-.72.1-1.49.1-2.05-.34-.18.05-.99.38-1.05,0-.53-3.14-.8-6.19-.92-9.56l16.31,2.75c1.07.18,1.91.71,2.9.95l5.27,1.27c.67.16,1.5.07,1.98.88l-8.25.95c-.4.05-.85.6-1.27.54-.39-.06-.68-.41-1.08-.84-.49.39-.07,1.01-.08,1.39l-3.97,1.02Z"/>
  <path class="cls-52" d="M4.81,76.31c.12.14.15.44.41.45,1.13.08,1.78-1.53,3.25-1.96l-.9,1.87c-.41.84.42,1.9,1.27,2.33l4.94,2.46c1.84.92,3.94,1,5.83,1.42.7.16,1.46.44,2.39.49.49.02.44.74-.08.61-1.09-.27-2.05-.28-2.94-.34-2.2-.17-4.33-.82-6.59-1.2-1.3-.22-2.43-.3-3.62-1.01l-1.55-.06c-.46-.27-.71-.72-.93-1.26-.27-.66-1.11-.7-1.59-1.02-.64-.42-1.03-.9-1.73-1.2-.36-.15-.53-.68-.53-.98,0-.28.19-.59.49-.81l1.64-1.2c-.06.52-.21.73-.21.98,0,.29.34.29.45.42Z"/>
  <path class="cls-18" d="M94.47,58.57c.3.28.05.37-.76.29-4.07-.49-8.05-1.33-12.17-2.24l-5.62-.72-1.17,3.4c.35-2.47,1.2-4.37,2.17-6.56l-.78,2.65c3.94.31,7.77.99,11.66,1.93,1.03.25,2.03.16,3.03.39l3.65.86Z"/>
  <path class="cls-44" d="M75.79,86.05c-.43-.73-.75-1.72-.66-2.45.06-.53.88-.16,1.15-.17,1.12-.03,2.41-.49,3.55-.44l.74,1.42-4.79,1.63Z"/>
  <path class="cls-38" d="M96.43,73.21c-.33-.29-.6-.57-.47-1.05.43-1.53,2.15-1.21,4.07-1.7-1.68-.57-3.28.64-3.85-.2.48.24,1.18-.26,1.7-.28l2.82-.09c1.73-.05,3.32.4,5.03-.09.71-.2,1.26.26,1.65.75l.43.22c.14.07-.03.34-.13.42-.19.14-.39.1-.59-.05-.75-.57-1.66-.33-2.55-.35-2.64-.05-5.24-.21-7.75.68-.58.21-.45,1.33-.36,1.74Z"/>
  <path class="cls-19" d="M9.89,73.62c-.5.17-.9.06-1.06-.49,1.41,0,2.35-.78,3.44-1.21.99-.4,2.14-.37,3.11-.85,1.47-.25,2.76-1.03,4.44-.72-1.88.95-3.92,1.22-5.89,1.9l-4.04,1.38Z"/>
  <path class="cls-29" d="M106.14,99.05c-.61,1.19-1.58,2.12-2.57,3.07.21.18.39.12.53.15-1.5,1.18-2.88,2.43-4.76,3.64-.37.24-.56.62-.99.7.02-.15.26-.33.21-.44-.07-.15-.32-.15-.39-.13l-.43.09,1.16-.69,3.63-2.82,2.61-2.64c.36-.36.47-.75.99-.93Z"/>
  <path class="cls-44" d="M81.63,84.11c-.53-.39-.58-.86-.81-1.24,1.13-.45,2.16-.21,3.36-.3.68-.05,1.47-.58,1.99.23l-4.54,1.31Z"/>
  <path class="cls-39" d="M85.39,81.24c-.88.22-1.67.03-2.4.22-.06-1.74-1.82.31-3.47-.43.93-.34,1.74-.77,2.69-.9l3.87-.52c-.25,1.19-1.99.24-2.79,1.36.81.31,1.45.09,2.1.28Z"/>
  <path class="cls-17" d="M58.28,95.37l-3.82,2.64.42-.72c-.18-.16-.32-.14-.43-.13.12-.14.29-.33.46-.44.93-.58,1.79-1.29,2.85-1.62.13.13.31.18.52.27Z"/>
  <path class="cls-3" d="M22.89,70.24l-2.03.29c-.21.03-.27-.21-.19-.31.06-.08.15-.26.34-.28l3.19-.25c-.32.4-.75.47-1.3.55Z"/>
  <path class="cls-55" d="M72.22,82.78c-.22.17-.55.34-.99.33l-2.23-.11c.33-.13.88-.22,1.24-.44.3-.18.69-.91,1.1-.62l.15.69c.04.19.49.21.73.16Z"/>
  <path class="cls-32" d="M7.68,73.83c.03.32-1.25,1.22-2.25,1.5,1.01-1.45,2.16-2.3,2.25-1.5Z"/>
  <path class="cls-64" d="M102.43,78.03c-.59.28-1.23.33-1.8,0,.43-.67,1.28-.51,1.8,0Z"/>
  <path class="cls-24" d="M47.46,84.61l-2.16.3c-.38.05-.9-.17-1.21-.37,1.12-.07,2.04-.18,3.37.08Z"/>
  <path class="cls-60" d="M38.91,119.93c.06.83-.88.74-1.66,1.55-.31-.39-.52-.6-.88-.76-.38-.91-.63-2.07-.33-3.08.43-1.48-1.19-2.88.9-4.56-.26,2.49.47,4.92,1.97,6.85Z"/>
  <path class="cls-19" d="M31.61,84.84c-.77.1-1.63.2-2.35-.47.77-.21,1.56-.31,2.35.47Z"/>
  <path class="cls-52" d="M228.97,131.27c.01.37-.04.77-.23,1.08s-.62.38-1,.31l-2.03-1.23c-.31-.19.06-1.29.42-1.39,1,.11,2.05.82,2.85,1.23Z"/>
  <path class="cls-60" d="M224.91,129.38c.42.25.24,1.77-.25,1.53l-2.45-1.26c-.38-.22-.58-1.22-.09-1.39.98-.06,1.94.77,2.79,1.12Z"/>
  <path class="cls-41" d="M210.26,123.31c1.66,1.08,3.77,1,2.87,2.03-1.29-.36-2.84-.95-4.05-1.76.09-.57.85-.53,1.18-.27Z"/>
  <path class="cls-2" d="M181.02,113.03c-.22,0-.44.19-.43.38.02.24.15.44.4.71-.4.23-.89,0-1.04-.47-.13-.41-.12-.78-.12-1.13.06.02.15.02.21.02.29.22.64.36.98.49Z"/>
  <path class="cls-55" d="M243.81,139.91c.51,1.24,1.8,1.92,2.77,3.05-1.77-.29-2.67-2.14-3.69-2.76-.04-.14-.26-.33-.2-.43s.41-.21.56-.25c.18.02.42.27.57.39Z"/>
  <path class="cls-29" d="M241.62,139.43l-2.1-1.66c.34-.48,2.11.46,2.66,1.62l-.56.04Z"/>
  <path class="cls-41" d="M112.71,75.6c-1.11.21-1.97.42-3.05.43-1.58.02-3.25.92-4.9.56-2.03-.45-6.35-2.41-7.54-4.34,1.37-.33,2.55-.61,3.78-.57l5.37.19c.95.03,1.77.31,2.74.42,3.03.34,5.86,1.42,8.9,2.15-.6.85-1.58.48-2.37.63l-2.93.54Z"/>
  <path class="cls-49" d="M95.03,62.16c.07.27-.14.39-.6.33l-2.16-.47-4.26-.28c-3.48-.23-10.03.42-10.44,2.68-.35,1.95,2.49,4.22,4.3,4.89.83.66.5.79-.41.55l-2.29-1.27c-1.84-1.02-3.23-3.11-2.08-5.14.82-1.43,5.25-2.48,7.31-2.26,1.14.12,2.26-.16,3.37-.11,2.44.11,4.89.42,7.26,1.07Z"/>
  <path class="cls-23" d="M125.41,74.42c-.76-.38-1.35-.71-2.17-.56l-.14.34c-.61-.04-1.3-.12-2.06-.25-.36-.14-.72-.24-1.23-.49l-1.54.15c-3.31-1.1-6.53-1.9-9.95-2.48-.16-.65-.45-.95-1.1-1.3.66-.43,1.16-.55,1.95-.48l-.55.7c.97.74,2.11,1.04,3.41.98-.66-.82-1.49-1-2.29-1.57.88-.35,1.4.21,1.96.63l1.94,1.45c.15.11.73.23.97.18.18-.04.11-.41.4-.55l3.92,1.22c.86.04,1.29.13,2.05.42,1.71.67,4.06.47,4.43,1.59Z"/>
  <path class="cls-10" d="M123.93,68.63l.03.49c-.26-.15-.63-.15-.93-.59l.03,1.37c-.55.11-.99-.22-.69-.78-.18-.21-.21-.71-.67-.92l-6.02-2.8c-1.68-.78-3.35-1.16-5.08-1.68-.68-.21-1.23-.51-1.98-.67-3.08-.64-5.96-1.82-9.01-3.01.4-1,1.1-.3,1.61-.07,2.6,1.18,5.22,1.94,7.98,2.64,2.4.61,4.73,1.51,7.04,2.49l6.73,2.85c.37.15.61.71.95.7Z"/>
  <path class="cls-18" d="M81.46,69.85c.09,0,.46.03.53-.11.05-.1-.19-.3-.11-.43,1.21.45,2.41,1.29,3.68,1.4.82.07,1.2-1.3,1.69-1.59,1.77-1.06,3.75-1.12,5.74-1.34.75-.08,1.46-.38,1.94.38-.81-.16-1.2.03-1.38.39-1.23-.42-2.64.04-3.97.39-1.43.38-2.49.89-2.78,2.55-1.54.17-2.71-.33-3.93-1.1-.41-.26-1.03-.34-1.4-.55Z"/>
  <path class="cls-30" d="M117.55,67.85c.08.22-.1.33-.52.3l-3.59-1.45-6.29-1.7c0-.08.08-.18.16-.21l3.63.54c.67.1.79-.2,1.4.38l2.17.82,3.04,1.31Z"/>
  <path class="cls-64" d="M117.55,67.85l2.72,1.12c.75.31,1.38.54,2.1.15.21.24.54.46.69.78l.12.19c.1.15.07.39-.09.43-.24.06-.39-.25-.49-.29l-5.58-2.08c.07-.24.31-.29.52-.3Z"/>
  <path class="cls-30" d="M101.33,62.36c.48-.21,3.31,1.73,5.64,2.34-1.95.26-3.62-.78-5.3-1.83l-.38-.23c-.18-.11-.04-.24.04-.28Z"/>
  <path class="cls-55" d="M99.41,68.96c-1.07.12-1.86.23-2.6-.57,1.81.68,2.88-1.03,4.94.48-.73.47-1.58,0-2.34.09Z"/>
  <path class="cls-10" d="M93.71,58.87c.28-.01.61-.06.76-.29l2.88.57c.69.14,1.48.04,1.97.69-2.04.07-3.89-.77-5.6-.97Z"/>
  <path class="cls-39" d="M123.23,73.86c.59.51,1.34.44,1.74,1.33-1.1-.33-1.81-.68-2.68-.35l.15-.46c-.62.15-1-.27-1.42-.44.71-.56,1.56.03,2.21-.09Z"/>
  <path class="cls-51" d="M94.43,62.49c.21-.06.41-.15.6-.33,1.24.34,2.4.02,3.71.73-1.01.59-1.95.04-2.93-.14l-1.38-.26Z"/>
  <path class="cls-65" d="M80.22,59.37c.21.03.13.77-.21.8-1.13.09-1.26-1.14-2.21-1.1-.18,0-.09-.57.08-.49.79.39,1.28.67,2.34.79Z"/>
  <rect class="cls-57" x="75.97" y="69.95" width=".81" height="1.21" transform="translate(-18.66 112.75) rotate(-66.67)"/>
  <path class="cls-58" d="M119.7,92.93c-.03-1.84,1.27-3.39.82-4.14.04.07-1.11-.8-1.95-1.22-.02-.28-.02-.45.06-.45l.8.07c.69.06.75-.79.85-1.41.07-.4-.65-.8-.79-1.28-.13-.45.3-.56.52-.5.26.07.56.39.87.6.46-.05.54-.82.44-1.19.69.27.13.97.15,1.33.17,2.74-.77,5.71-1.77,8.18Z"/>
  <path class="cls-39" d="M103.89,110.05c-.17-1.69,1.34-.04,1.99-.82.52-.62-.08-1.31.57-1.84.24-.2.73,0,.68.39l-.61.7c-.2.23.11.73.26,1.33-.99-.02-1.96.01-2.9.23Z"/>
  <path class="cls-48" d="M113.75,100.53s.18,1.38-.21,1.73c-.28.25-.86.26-1.01-.09l.57-1.43c.1-.24.43-.34.65-.21Z"/>
  <path class="cls-16" d="M102.82,113.3c.1.17-.61.36-.77.18-.03-.04-.59-1.55-.55-1.71.08-.28.47-.47.9-.35-.22.67-.1,1.15.41,1.88Z"/>
  <path class="cls-6" d="M114.54,98.64c0,.31-.53.84-.81.84-.25-.01-.38-.46-.35-.71.02-.18.13-.48.39-.54.22-.05.77.1.77.41Z"/>
  <path class="cls-65" d="M119.42,89.17c.15.03.17,1.29.23,1.18-.07.14-.4.16-.54-.06l-.6-.94c.08-.22.65-.24.91-.18Z"/>
  <path class="cls-54" d="M97.95,115.88l-.49.26c-.23.13-.42-.12-.37-.35.13-.55.74-.77,1.06-.63.18.08.13.54-.21.72Z"/>
  <path class="cls-41" d="M150.17,137.72l-2.48-.35c-.81-.11-1.59.09-2.41-.22-1.51-.57-3.1-.55-4.65-.87l-3.77-.8c-.89-.19-1.65-.19-2.48-.72l-2.15-.41c-1.34-.55-2.61-.87-3.95-1.38l-1.91-.73-9.33-3.82-7.32-3.99-3.5-2.04-3.79-2.93c-.36-.28.18-.76.37-.87,1.28-.71.85.82,2.05.63.51-.08.86-.34.74-.96-.22-1.12-1.93-.35-1.65-1.95.08-.45.52-.52.88-.84,1.25-1.1,2.37-2.08,4.06-2.35.31-1.33,1.05-2.37,2.27-2.85.48-1.19,1.3-2.15,2.36-2.88l.84-1.02c.88-1.07,1.51-1.72,2.28-3.03l1.97-3.37c.49-.83,1.14-1.52,1.08-2.64.81-.6.97-1.44.92-2.39.89-.83,1.27-2.01,1.16-3.15-.09-.91.51-1.31.75-1.95.27-.7.27-1.68.32-2.52.04-.6-.8-1.32-.22-2.3,1.97.31,4.07.85,5.93,1.81,1.5.77,3.07,1.08,4.58,1.68l5.31,2.11,3.32,1.48c2.33,1.04,4.58,2.04,6.77,3.26l4.02,2.26c3.34,1.87,6.29,3.62,9.43,5.9,1.14.83,2.34,1.42,3.34,2.49l2.94,2.13c.08.53-.12,1-.2,1.54,1.89,3.07.17,4.15.36,5.09.12.57.74.54,1.1.9.56.54.76,1.43,1.12,2.14-1.53.67-2.18,1.86-1.93,3.35.05.32.45.46.7.47.91.03.94-.91,1.82-1.47.74.54.88,1.48,1.13,2.34.08.26.77.66.52,1.1-.27.47-.7.91-.57,1.52.09.41.51.9,1.08,1.07l1.9.59c-.25.85.16,1.55.29,2.38l.35,2.1c-.49,1.21-1.89,1.74-2.79,2.44-1.01.79-1.83,1.24-3.03,1.62-6.62,2.07-10.89,2.72-17.87,2.48l-2.09-.07Z"/>
  <path class="cls-21" d="M171.7,116.63c1.2,2.85,2.61,5.66,3.27,8.81-1.62-2-1.87-4.4-3.1-6.39l-.7-1.9c.09-.11.06-.44.04-.61-.02-.14.34-.07.48.07Z"/>
  <path class="cls-55" d="M176.66,123.48c.24,1.01.75,1.53,1.34,2.42-1.21.21-1.95-1.2-1.98-2.22,0-.3.6-.38.64-.21Z"/>
  <path class="cls-41" d="M178.08,128.3c-.3.13-.72-.7-.67-1.02.14-.79.81-.55,1.5-.94.23-.13.25.15.23.26-.04.23-.14.34-.49.44-.14.23,0,1-.57,1.25Z"/>
  <path class="cls-41" d="M179.14,124.66c-.08.26-.04.56-.03.7,0,.08-.13.2-.26.07l-.31-.32c-.11-.12-.56-.28-.57-.45-.02-.32.3-.56.53-.64.42-.15.83,0,.64.65Z"/>
  <path class="cls-41" d="M203.51,18.71c-1.66.9-1.23-1.47-2.46-1.43-1.09.04-1.64,2.27-1.01,2.96,1.01,1.11,2.34-.35,3.19,0,.76.32,1.57.17,2.17-.32.64.58.64,1.38.93,2.04.69,1.62.82,3.15.91,4.91.04.71.45,1.46-.07,2.22.08,3.41-1,6.66-2.49,9.56l-18.85-.04V5.01s3.29,1.3,3.29,1.3l3.44,1.62c.77.36.93,1.33,2.1,1.27.96-.05,1.7.58,2.4,1.13l3.77,2.93c-.68.25-1.26.5-1.46.92-.3.62-.11,1.15.37,1.54,1.05.85,1.96-.47,2.31-.53.65-.12,1.72,1.52,2.44,2.85.1.37-.72.54-.97.68Z"/>
  <path class="cls-41" d="M135.64,79.69l1.03.13c1.73.98,3.5,1.94,5.31,2.87.92,1-1.82.71-2.5.57,0,.58-1.69.36-1.78-.17l-.32.25c-1.85-.22-4.04-.66-5.75-1.28l-8.64-1.16c-.28-.04-.51-.1-.61-.25-.1-.16-.18-.46-.07-.7l1.35-3.04,2.74-.82,6.52,2.54,2.73,1.05Z"/>
  <path class="cls-60" d="M117.11,79.93l-3.17-.52-5.44-.88,13.49-2.39c-1.06,1.28-2.04,1.97-2.64,3.21-.44.91-1.34.95-2.23.57Z"/>
  <path class="cls-44" d="M130.66,82.59c.47.13,1.18.22,1.5-.16,1.35.06,3.54.52,4.91.86.14.03.24.19.34.38.03-.12.11-.26.21-.26,2.3.1,5.04.5,7.32.91.27.09.44.35.55.62l1.54,1.2c-1.71.18-3.18-.28-4.82-.51l-6.76-.96c-.4-.28-.87-.46-1.07.08-.4.1-4.59-1.02-4.72-1.23-.09-.16-.33-1.15.1-1.09l.9.15Z"/>
  <path class="cls-18" d="M143.45,83.34l-.27.53c-.3.12-3.55-.08-3.63-.24-.06-.1-.06-.23-.06-.37l2.55-.09c-1.08-.79-2.24-1.37-3.46-1.9-.47-.2-.81.02-1.31-.59-.31-.38-1.17-.81-1.62-.98.31.01.72.01.8-.28,1.01.24,1.87.96,2.86,1.47,1.49.76,2.97,1.38,4.15,2.46Z"/>
  <path class="cls-42" d="M128.78,82.47c.36.02.45.05.17.31.26.22.36.36.09.55-.61.44-3.49.28-4.24-.36-.52.04-1.05-.03-1.6-.23-.27-.18-.53-.47-.69-.9.82-.19,1.41.14,2.19.18,1.35.07,2.92,0,4.07.45Z"/>
  <path class="cls-28" d="M129.76,82.43c-.06.49.17.84.72,1.01l2.04.63c.65.2,1.21.64,1.9.23.19-.11.45-.19.64-.11.16.07.29.3.4.47-.2.03-.38-.19-.92.05.22.35.53.35.74.54l-1.51-.29c-1-.19-1.9-.31-2.79-.79-.52-.28-.88-.15-1.25.02-.2.66-1.4.39-1.41-.21l-.48-.34c.82-.1,1.19-.39,1.13-.86-.07-.04-.14-.19-.17-.31.29-.07.67-.09.97-.04Z"/>
  <path class="cls-38" d="M137.7,83.09c.31.54.32.57-.29.57-1.62-.38-3.21-.59-4.93-.96-.45-.1-1.48.32-1.81-.12.47-.05,1.01.08,1.47-.12l-.51-.4,6.07,1.03Z"/>
  <path class="cls-57" d="M128.96,82.78l.42.25c.19.12.17.47-.13.48l-.81.03c-.14,0-.26.24-.13.44.05.31-1.59.06-1.52.01.27-.19.35-.02.03.21-1.25-.36-2.52-.71-3.6-1.46l1.68-.23c1.77.89,4.23,1.24,4.07.26Z"/>
  <path class="cls-46" d="M120.93,80.42c-.15.27-.89.17-1.02-.09.26-.87.92-1.73,1.92-1.9-.2.76-.5,1.26-.9,1.99Z"/>
  <path class="cls-7" d="M128.31,83.98c.36.17,1.04.38,1.41.21-.15.26-.16.54-.05.85l-2.86-.83-.24-.41c.74-.16,1.21-.06,1.73.18Z"/>
  <path class="cls-14" d="M118.13,80.89c-1.06.56-2.12-.05-3.11-.42,1.03-.35,2.1-.38,3.11.42Z"/>
  <path class="cls-65" d="M121.48,81.76c.32.34-.01.68-.36.58l-1.52-.47c-.35-.11-.29-.73.04-.72.59,0,1.45.19,1.84.61Z"/>
  <path class="cls-4" d="M139.48,83.27c1.24.54,2.65.28,3.97.08.68.11,1.62.53,2.24.87.54.29,1.15.34,1.77.26.18-.65.51-.5.49.16l.06.53c-.32-.02-.9.32-1.28.2l-1.24-.41c-2.21-.73-4.59-.9-7.06-1.03l-1.02-.24c0-.15.1-.32.29-.57l1.78.17Z"/>
  <path class="cls-47" d="M147.95,84.62l-.49-.16c-.01-.31-.07-.69.19-1.02.75.22,1.07.71,1.47,1.22l-1.17-.04Z"/>
  <path class="cls-44" d="M157.66,140.35c-.21-.06-.03-.76.27-.68l.85.21,3.9-.47c.07.03.15.16.14.22l-5.16.72Z"/>
  <path class="cls-42" d="M156.1,140.35c-1.06.04-2.16.17-3.38-.08l3.25-.39c.17.17.16.34.13.47Z"/>
  <path class="cls-35" d="M172.63,114.72c-.33-.27-.74-.64-.7-1.16.03-.39-.03-.79-.24-1.29.98.06,1.55.91,1.93,1.73l-.99.72Z"/>
  <path class="cls-39" d="M78.09,80.04c.47-.09,1.06,1.08,1,1.17-.16.21-.6.32-.8.28-.37-.07-.47-1.4-.2-1.45Z"/>
</svg>